<?xml version="1.0" standalone="no"?>
<!DOCTYPE svg PUBLIC "-//W3C//DTD SVG 20010904//EN"
 "http://www.w3.org/TR/2001/REC-SVG-20010904/DTD/svg10.dtd">
<svg version="1.0" xmlns="http://www.w3.org/2000/svg"
 width="626.000000pt" height="626.000000pt" viewBox="0 0 626.000000 626.000000"
 preserveAspectRatio="xMidYMid meet">

<g transform="translate(0.000000,626.000000) scale(0.100000,-0.100000)"
fill="#4f46e5" stroke="none">
<path d="M1708 5723 c6 -2 18 -2 25 0 6 3 1 5 -13 5 -14 0 -19 -2 -12 -5z"/>
<path d="M1776 5695 c10 -8 23 -15 28 -15 6 0 1 7 -10 15 -10 8 -23 15 -28 15
-6 0 -1 -7 10 -15z"/>
<path d="M4634 5635 c-3 -8 -4 -20 -1 -27 3 -7 6 -3 6 9 1 14 9 23 24 26 l22
4 -23 2 c-12 0 -25 -6 -28 -14z"/>
<path d="M1428 5583 c7 -3 16 -2 19 1 4 3 -2 6 -13 5 -11 0 -14 -3 -6 -6z"/>
<path d="M4766 5581 c-3 -4 6 -6 19 -3 14 2 25 6 25 8 0 8 -39 4 -44 -5z"/>
<path d="M1875 5573 c-111 -16 -274 -78 -380 -146 -63 -40 -77 -51 -142 -111
-44 -40 -53 -55 -53 -82 0 -20 -12 -52 -30 -80 -43 -68 -63 -137 -58 -196 10
-95 80 -151 218 -173 32 -5 37 -10 54 -58 35 -99 162 -248 289 -338 l56 -40
37 55 c39 59 104 233 104 278 0 21 9 34 38 52 47 29 66 52 56 67 -4 7 -3 9 3
6 20 -13 37 50 41 157 4 106 5 110 40 155 83 108 109 228 66 302 -27 46 -98
88 -161 96 -39 4 -59 13 -79 34 -27 28 -37 30 -99 22z m20 -343 c10 -11 16
-20 13 -20 -3 0 -13 9 -23 20 -10 11 -16 20 -13 20 3 0 13 -9 23 -20z m50 -20
c3 -6 -1 -7 -9 -4 -18 7 -21 14 -7 14 6 0 13 -4 16 -10z m-308 -32 c-3 -8 -6
-5 -6 6 -1 11 2 17 5 13 3 -3 4 -12 1 -19z m127 3 c4 -5 -3 -7 -14 -4 -23 6
-26 13 -6 13 8 0 17 -4 20 -9z m129 2 c-13 -2 -33 -2 -45 0 -13 2 -3 4 22 4
25 0 35 -2 23 -4z m-173 -7 c0 -2 -8 -10 -17 -17 -16 -13 -17 -12 -4 4 13 16
21 21 21 13z m35 -56 c-3 -5 -12 -10 -18 -10 -7 0 -6 4 3 10 19 12 23 12 15 0z
m75 -66 c-5 -19 -12 -39 -16 -42 -4 -4 -4 1 -1 11 4 10 7 30 7 43 0 13 4 24 9
24 5 0 5 -15 1 -36z m-6 -190 c9 -8 16 -20 16 -25 0 -5 -7 -9 -16 -9 -18 0
-44 23 -44 39 0 16 26 13 44 -5z m-307 -26 c-3 -7 -5 -2 -5 12 0 14 2 19 5 13
2 -7 2 -19 0 -25z m240 -220 c-3 -8 -6 -5 -6 6 -1 11 2 17 5 13 3 -3 4 -12 1
-19z m46 -115 c-7 -2 -21 -2 -30 0 -10 3 -4 5 12 5 17 0 24 -2 18 -5z"/>
<path d="M1293 5380 c0 -25 2 -35 4 -22 2 12 2 32 0 45 -2 12 -4 2 -4 -23z"/>
<path d="M4595 5340 c-11 -17 -96 -63 -159 -85 -51 -18 -80 -21 -176 -19 -63
2 -139 10 -167 18 l-53 14 0 -36 c0 -40 43 -142 60 -142 5 0 10 12 10 28 0 41
26 72 61 72 l29 0 -20 -20 c-29 -29 -25 -40 13 -34 55 10 62 13 49 26 -20 20
-14 28 21 28 18 0 49 9 70 19 40 21 48 14 17 -14 -30 -27 -14 -38 44 -30 65 8
122 33 169 75 l37 32 0 -70 c0 -89 11 -117 55 -143 30 -18 35 -26 35 -59 0
-44 18 -63 34 -35 37 63 81 71 128 25 25 -26 29 -36 24 -63 -14 -74 -90 -122
-147 -93 -21 10 -29 11 -29 3 0 -7 -5 -61 -11 -121 -10 -97 -10 -112 5 -137
16 -27 16 -29 -4 -39 -28 -15 -51 -65 -52 -113 0 -25 -8 -52 -21 -68 -16 -22
-19 -38 -15 -78 3 -34 1 -57 -8 -69 -22 -29 -17 -95 9 -120 31 -29 52 -28 55
3 1 14 11 44 22 66 18 33 19 43 8 56 -10 13 -8 19 17 39 24 19 29 31 29 66 1
35 7 48 34 73 25 22 35 41 39 75 3 25 16 57 29 73 13 16 25 38 25 50 3 38 -3
91 -11 106 -4 9 2 28 17 49 31 46 37 75 25 111 -8 23 -7 40 5 70 9 22 19 38
23 36 16 -10 42 -134 39 -183 -3 -34 -1 -48 6 -41 6 6 10 42 9 82 -1 80 -30
199 -44 177 -6 -9 -12 -1 -20 29 -24 89 -114 197 -234 280 -63 44 -71 47 -81
31z"/>
<path d="M4011 5314 c0 -11 3 -14 6 -6 3 7 2 16 -1 19 -3 4 -6 -2 -5 -13z"/>
<path d="M4446 5121 c-6 -10 63 -55 71 -47 3 3 3 17 -1 31 -5 20 -13 25 -36
25 -16 0 -31 -4 -34 -9z"/>
<path d="M4169 5064 c-27 -33 24 -70 55 -39 12 12 13 21 6 36 -13 23 -43 25
-61 3z"/>
<path d="M4409 5044 c-17 -21 0 -49 32 -49 27 0 37 28 19 50 -16 19 -34 19
-51 -1z"/>
<path d="M4370 4853 c-48 -8 -53 -12 -40 -28 16 -19 40 -19 40 -1 0 8 12 19
28 24 28 11 17 13 -28 5z"/>
<path d="M4162 4691 c-5 -15 -8 -39 -5 -53 4 -22 -1 -29 -31 -43 -44 -21 -66
-50 -66 -87 0 -21 -7 -31 -25 -38 -27 -10 -61 -73 -50 -91 4 -5 -7 -22 -24
-38 -36 -34 -39 -63 -11 -108 24 -39 36 -42 44 -9 3 14 20 34 36 46 17 12 30
31 30 43 1 14 13 30 33 42 20 13 34 31 37 49 4 22 12 32 34 37 38 11 74 45 81
80 4 16 13 29 22 29 23 0 73 56 73 83 0 21 -6 25 -38 31 -21 3 -59 17 -84 30
l-47 25 -9 -28z"/>
<path d="M2895 4638 c-32 -93 -33 -97 -18 -110 22 -18 46 2 60 48 6 21 12 31
12 21 1 -10 -6 -33 -14 -53 -8 -19 -10 -32 -4 -29 12 8 59 81 59 92 0 7 -72
43 -85 43 -3 0 -8 -6 -10 -12z"/>
<path d="M2797 4487 c-26 -23 -58 -50 -70 -60 -17 -14 -18 -17 -4 -13 11 4 16
2 12 -5 -4 -5 -15 -7 -25 -4 -21 7 -40 -17 -61 -79 -13 -36 -25 -50 -84 -103
-12 -10 -15 -14 -8 -9 9 6 13 2 13 -13 0 -50 93 -181 130 -181 9 0 36 69 32
83 -1 5 2 6 7 3 12 -8 33 18 23 29 -4 5 -1 5 6 1 16 -10 125 40 117 54 -3 5 0
7 8 4 9 -3 24 6 36 22 26 33 26 41 4 47 -14 4 -12 5 5 6 12 0 22 6 22 12 0 6
-6 7 -12 2 -7 -4 -5 4 4 19 12 18 16 44 15 89 -2 63 -2 64 -29 62 -22 -1 -28
3 -28 18 0 10 -6 19 -13 19 -7 0 -18 9 -25 20 -7 11 -16 20 -20 20 -4 0 -28
-19 -55 -43z m63 29 c0 -2 -7 -7 -16 -10 -8 -3 -12 -2 -9 4 6 10 25 14 25 6z
m-40 -100 c0 -2 -8 -10 -17 -17 -16 -13 -17 -12 -4 4 13 16 21 21 21 13z m-59
-93 c-8 -15 -10 -15 -11 -2 0 17 10 32 18 25 2 -3 -1 -13 -7 -23z m-24 -85
c-3 -7 -5 -2 -5 12 0 14 2 19 5 13 2 -7 2 -19 0 -25z"/>
<path d="M1831 4243 c13 -90 49 -548 68 -868 15 -231 19 -267 20 -175 2 267
-62 1062 -89 1093 -4 4 -3 -18 1 -50z"/>
<path d="M881 4209 c-5 -13 -27 -64 -49 -114 -55 -125 -92 -231 -92 -263 1
-49 37 -106 118 -186 l81 -80 19 45 c19 45 108 133 124 123 4 -3 8 -1 8 5 0
10 39 27 54 23 8 -3 -28 62 -45 82 -5 6 8 41 30 81 l38 71 -51 34 c-28 19 -90
72 -138 119 -85 81 -88 83 -97 60z"/>
<path d="M2366 4159 c-16 -23 -60 -73 -97 -110 -64 -62 -69 -70 -69 -110 0
-36 8 -52 47 -103 58 -74 78 -93 122 -112 49 -22 94 -11 139 34 46 46 176 223
159 216 -17 -6 -112 79 -125 113 -6 15 -16 41 -22 56 l-10 28 -35 -27 c-20
-15 -37 -25 -39 -23 -2 2 -12 21 -23 42 l-19 39 -28 -43z"/>
<path d="M4732 4120 c0 -14 2 -19 5 -12 2 6 2 18 0 25 -3 6 -5 1 -5 -13z"/>
<path d="M4622 4020 c0 -14 2 -19 5 -12 2 6 2 18 0 25 -3 6 -5 1 -5 -13z"/>
<path d="M4752 3955 c0 -16 2 -22 5 -12 2 9 2 23 0 30 -3 6 -5 -1 -5 -18z"/>
<path d="M5242 3945 c0 -16 2 -22 5 -12 2 9 2 23 0 30 -3 6 -5 -1 -5 -18z"/>
<path d="M5251 3874 c0 -11 3 -14 6 -6 3 7 2 16 -1 19 -3 4 -6 -2 -5 -13z"/>
<path d="M5262 3810 c0 -14 2 -19 5 -12 2 6 2 18 0 25 -3 6 -5 1 -5 -13z"/>
<path d="M4772 3790 c0 -19 2 -27 5 -17 2 9 2 25 0 35 -3 9 -5 1 -5 -18z"/>
<path d="M2203 3755 c0 -22 2 -30 4 -17 2 12 2 30 0 40 -3 9 -5 -1 -4 -23z"/>
<path d="M4582 3710 c0 -14 2 -19 5 -12 2 6 2 18 0 25 -3 6 -5 1 -5 -13z"/>
<path d="M1118 3680 c-55 -37 -70 -53 -102 -113 l-25 -49 29 -25 c19 -16 37
-23 47 -18 10 3 14 3 10 -1 -8 -8 11 -34 25 -34 5 0 6 5 2 12 -4 7 -3 8 5 4 6
-4 9 -10 7 -14 -8 -14 20 -40 97 -90 82 -53 161 -88 227 -98 53 -9 127 4 149
24 26 25 80 52 102 52 29 0 59 18 59 35 0 24 -62 62 -150 90 -101 32 -120 45
-63 45 74 0 87 55 18 79 -22 8 -87 16 -145 18 -58 3 -117 10 -133 16 -15 7
-39 31 -54 54 -15 24 -34 43 -43 43 -9 0 -37 -13 -62 -30z"/>
<path d="M5282 3680 c0 -14 2 -19 5 -12 2 6 2 18 0 25 -3 6 -5 1 -5 -13z"/>
<path d="M5291 3594 c0 -11 3 -14 6 -6 3 7 2 16 -1 19 -3 4 -6 -2 -5 -13z"/>
<path d="M2222 3520 c0 -19 2 -27 5 -17 2 9 2 25 0 35 -3 9 -5 1 -5 -18z"/>
<path d="M5302 3520 c0 -14 2 -19 5 -12 2 6 2 18 0 25 -3 6 -5 1 -5 -13z"/>
<path d="M5322 3370 c0 -14 2 -19 5 -12 2 6 2 18 0 25 -3 6 -5 1 -5 -13z"/>
<path d="M4802 3359 c-13 -5 -76 -14 -140 -20 -64 -6 -118 -11 -119 -13 -1 -1
-11 -73 -23 -161 -11 -88 -24 -180 -28 -205 l-8 -45 -54 3 c-97 5 -255 71
-354 147 -26 20 -49 35 -51 33 -1 -2 -7 -97 -14 -213 l-11 -210 27 -22 c42
-34 142 -71 214 -79 51 -6 71 -13 101 -38 112 -96 391 -124 590 -60 50 16 58
30 57 104 0 19 9 98 20 174 12 76 19 141 17 144 -3 2 -34 -3 -70 -13 -37 -9
-70 -14 -75 -11 -5 3 -11 38 -15 78 -4 40 -16 142 -27 226 -22 180 -23 185 -7
176 7 -4 8 -3 4 4 -4 7 -8 12 -9 11 -1 0 -12 -4 -25 -10z"/>
<path d="M1122 3320 c0 -14 2 -19 5 -12 2 6 2 18 0 25 -3 6 -5 1 -5 -13z"/>
<path d="M3698 3333 c12 -2 32 -2 45 0 12 2 2 4 -23 4 -25 0 -35 -2 -22 -4z"/>
<path d="M2242 3310 c0 -14 2 -19 5 -12 2 6 2 18 0 25 -3 6 -5 1 -5 -13z"/>
<path d="M1113 3210 c0 -25 2 -35 4 -22 2 12 2 32 0 45 -2 12 -4 2 -4 -23z"/>
<path d="M5342 3215 c0 -16 2 -22 5 -12 2 9 2 23 0 30 -3 6 -5 -1 -5 -18z"/>
<path d="M3970 3155 c13 -14 26 -25 28 -25 3 0 -5 11 -18 25 -13 14 -26 25
-28 25 -3 0 5 -11 18 -25z"/>
<path d="M5352 3145 c0 -16 2 -22 5 -12 2 9 2 23 0 30 -3 6 -5 -1 -5 -18z"/>
<path d="M2262 3090 c0 -14 2 -19 5 -12 2 6 2 18 0 25 -3 6 -5 1 -5 -13z"/>
<path d="M5329 3083 c-13 -16 -12 -17 4 -4 16 13 21 21 13 21 -2 0 -10 -8 -17
-17z"/>
<path d="M1919 3009 c0 -2 -8 -77 -18 -167 -10 -89 -21 -165 -24 -169 -13 -12
-196 -24 -287 -18 -100 6 -200 21 -237 36 -14 5 -23 5 -23 -1 0 -5 23 -73 51
-151 50 -137 51 -143 35 -168 -9 -14 -37 -64 -63 -111 -25 -47 -66 -116 -91
-153 -30 -46 -42 -75 -39 -89 7 -26 -12 -58 -35 -58 -9 0 -29 -17 -45 -37 -15
-21 -73 -83 -130 -138 -92 -90 -103 -104 -103 -135 0 -36 33 -120 47 -120 23
-1 33 -22 43 -90 7 -43 22 -93 36 -116 46 -81 169 -138 285 -132 57 3 64 5 80
33 31 54 24 85 -37 160 -41 51 -55 86 -60 149 -3 54 8 78 64 138 19 20 32 43
30 50 -7 17 -5 34 3 31 4 -1 15 7 24 17 10 11 26 20 35 20 9 0 21 5 27 11 13
13 15 7 34 -109 6 -40 12 -102 13 -139 1 -56 5 -68 24 -81 22 -14 31 -52 12
-52 -6 0 -10 -29 -10 -68 0 -37 -7 -99 -15 -137 -8 -39 -15 -100 -15 -137 l0
-68 43 -27 c25 -16 57 -27 80 -27 34 -1 45 -9 110 -77 85 -90 146 -119 267
-126 96 -5 136 13 156 72 23 66 15 81 -102 180 -89 76 -150 140 -168 176 -9
19 -22 81 -27 139 -6 58 -12 108 -12 113 -1 4 9 13 23 20 23 12 25 18 26 97 1
47 7 150 13 230 6 80 13 224 17 320 l7 175 49 60 c83 102 137 231 174 415 6
34 6 34 -12 19 -23 -20 -93 -56 -145 -75 -37 -12 -39 -12 -43 9 -3 12 -17 85
-32 162 -23 122 -32 160 -35 144z m-684 -1039 c3 -5 1 -10 -4 -10 -6 0 -11 5
-11 10 0 6 2 10 4 10 3 0 8 -4 11 -10z m-25 -51 c0 -6 -4 -7 -10 -4 -5 3 -10
11 -10 16 0 6 5 7 10 4 6 -3 10 -11 10 -16z m85 -39 c10 -11 16 -20 13 -20 -3
0 -13 9 -23 20 -10 11 -16 20 -13 20 3 0 13 -9 23 -20z m-54 -17 c13 -16 12
-17 -3 -4 -10 7 -18 15 -18 17 0 8 8 3 21 -13z m13 -32 c3 -5 -1 -14 -8 -20
-12 -10 -13 -8 -9 8 6 23 9 25 17 12z m71 -29 c-3 -3 -11 0 -18 7 -9 10 -8 11
6 5 10 -3 15 -9 12 -12z m298 -369 c-7 -2 -19 -2 -25 0 -7 3 -2 5 12 5 14 0
19 -2 13 -5z m177 -17 c8 -2 -22 -4 -67 -5 -45 0 -84 3 -87 7 -4 7 120 5 154
-2z"/>
<path d="M2282 2895 c0 -16 2 -22 5 -12 2 9 2 23 0 30 -3 6 -5 -1 -5 -18z"/>
<path d="M1093 2850 c0 -36 2 -50 4 -32 2 17 2 47 0 65 -2 17 -4 3 -4 -33z"/>
<path d="M5097 1961 c3 -11 -7 -36 -22 -59 -20 -30 -24 -46 -19 -68 7 -28 6
-29 -13 -11 -11 9 -24 17 -30 17 -5 0 -36 -24 -69 -54 l-59 -54 41 -44 c49
-51 81 -108 62 -108 -10 0 -9 -3 1 -9 9 -6 11 -15 6 -27 -4 -11 -7 -29 -6 -41
1 -13 -2 -23 -8 -23 -6 0 -8 -6 -5 -13 2 -7 -11 -31 -29 -52 -58 -69 -71 -112
-49 -167 16 -40 46 -51 115 -43 119 13 225 73 260 147 8 18 21 70 27 115 10
66 16 82 31 86 24 6 51 69 53 120 1 33 -6 43 -63 97 -34 33 -78 72 -97 86 -19
15 -50 48 -70 75 -36 50 -66 65 -57 30z"/>
<path d="M4720 1416 c0 -13 -26 -26 -78 -41 -12 -4 -28 -18 -36 -32 l-13 -26
-7 27 c-6 25 -8 26 -87 26 -55 0 -81 -4 -84 -12 -2 -7 -6 -47 -9 -88 -2 -41
-9 -76 -15 -78 -6 -2 -9 -8 -6 -12 3 -5 -3 -18 -15 -30 -11 -11 -17 -20 -13
-20 4 0 -47 -53 -114 -117 -66 -65 -123 -125 -125 -133 -3 -8 2 -37 11 -65 14
-43 21 -52 51 -62 52 -18 120 -15 191 7 90 28 129 55 197 135 33 39 65 68 73
66 41 -11 123 31 138 70 8 22 -9 168 -28 234 -6 22 -11 68 -11 103 0 34 -4 62
-10 62 -5 0 -10 -6 -10 -14z"/>
</g>
</svg>
