<?xml version="1.0" standalone="no"?>
<!DOCTYPE svg PUBLIC "-//W3C//DTD SVG 20010904//EN"
 "http://www.w3.org/TR/2001/REC-SVG-20010904/DTD/svg10.dtd">
<svg version="1.0" xmlns="http://www.w3.org/2000/svg"
 width="626.000000pt" height="626.000000pt" viewBox="0 0 626.000000 626.000000"
 preserveAspectRatio="xMidYMid meet">

<g transform="translate(0.000000,626.000000) scale(0.100000,-0.100000)"
fill="#4f46e5" stroke="none">
<path d="M1926 5635 c-9 -26 -7 -32 5 -12 6 10 9 21 6 23 -2 3 -7 -2 -11 -11z"/>
<path d="M1936 5605 c-3 -9 -6 -22 -5 -28 0 -7 5 -1 10 12 5 13 8 26 5 28 -2
2 -6 -3 -10 -12z"/>
<path d="M1951 5573 c-1 -6 -4 -20 -7 -30 -5 -17 -5 -17 6 0 6 10 9 23 6 30
-3 9 -5 9 -5 0z"/>
<path d="M1955 5520 c-4 -12 -5 -24 -2 -27 3 -2 8 5 12 17 4 12 5 24 2 27 -3
2 -8 -5 -12 -17z"/>
<path d="M5485 5490 c10 -11 20 -20 23 -20 3 0 -3 9 -13 20 -10 11 -20 20 -23
20 -3 0 3 -9 13 -20z"/>
<path d="M1966 5485 c-3 -9 -6 -22 -5 -28 0 -7 5 -1 10 12 5 13 8 26 5 28 -2
2 -6 -3 -10 -12z"/>
<path d="M1976 5441 c-3 -5 -3 -24 1 -42 5 -28 7 -30 14 -14 11 29 10 37 -3
29 -8 -5 -9 0 -6 14 6 23 3 29 -6 13z"/>
<path d="M817 5383 c-4 -3 -7 -18 -6 -32 1 -26 1 -25 10 3 9 31 7 41 -4 29z"/>
<path d="M831 5344 c0 -11 3 -14 6 -6 3 7 2 16 -1 19 -3 4 -6 -2 -5 -13z"/>
<path d="M1991 5344 c0 -11 3 -14 6 -6 3 7 2 16 -1 19 -3 4 -6 -2 -5 -13z"/>
<path d="M842 5305 c0 -11 3 -29 8 -40 11 -25 11 1 0 35 -6 20 -8 21 -8 5z"/>
<path d="M2000 5305 c0 -8 2 -15 4 -15 2 0 6 7 10 15 3 8 1 15 -4 15 -6 0 -10
-7 -10 -15z"/>
<path d="M2017 5283 c-4 -3 -7 -13 -7 -22 1 -13 3 -13 11 2 11 19 8 33 -4 20z"/>
<path d="M2026 5245 c-3 -9 -6 -22 -5 -28 0 -7 5 -1 10 12 5 13 8 26 5 28 -2
2 -6 -3 -10 -12z"/>
<path d="M4924 5231 c-45 -28 -74 -74 -81 -129 -7 -64 10 -114 52 -151 114
-100 283 -33 292 116 4 69 -22 124 -76 160 -45 30 -141 32 -187 4z"/>
<path d="M841 5224 c0 -11 3 -14 6 -6 3 7 2 16 -1 19 -3 4 -6 -2 -5 -13z"/>
<path d="M851 5184 c0 -11 3 -14 6 -6 3 7 2 16 -1 19 -3 4 -6 -2 -5 -13z"/>
<path d="M5568 5163 c7 -3 16 -2 19 1 4 3 -2 6 -13 5 -11 0 -14 -3 -6 -6z"/>
<path d="M884 5101 c0 -37 2 -48 8 -35 6 13 7 8 4 -16 -4 -29 -3 -32 6 -14 7
16 6 35 -4 70 l-14 49 0 -54z"/>
<path d="M2056 5125 c-3 -9 -6 -22 -5 -28 0 -7 5 -1 10 12 5 13 8 26 5 28 -2
2 -6 -3 -10 -12z"/>
<path d="M2066 5085 c-3 -9 -6 -22 -5 -28 0 -7 5 -1 10 12 5 13 8 26 5 28 -2
2 -6 -3 -10 -12z"/>
<path d="M2072 5015 c0 -16 2 -22 5 -12 2 9 2 23 0 30 -3 6 -5 -1 -5 -18z"/>
<path d="M2092 5000 c0 -14 2 -19 5 -12 2 6 2 18 0 25 -3 6 -5 1 -5 -13z"/>
<path d="M3030 5005 c0 -13 26 -15 170 -15 144 0 170 2 170 15 0 13 -26 15
-170 15 -144 0 -170 -2 -170 -15z"/>
<path d="M4140 4998 c0 -32 -101 -78 -126 -58 -13 11 -19 9 -41 -13 -22 -21
-24 -28 -14 -41 18 -21 -26 -136 -51 -136 -14 0 -18 -9 -18 -40 0 -32 4 -40
18 -40 12 0 26 -19 43 -59 24 -54 25 -61 11 -75 -15 -15 -14 -18 10 -43 26
-26 28 -26 46 -10 18 16 22 16 48 2 16 -8 41 -20 57 -25 17 -6 27 -17 27 -30
0 -17 7 -20 40 -20 33 0 40 3 40 20 0 13 10 24 28 30 15 5 40 17 56 25 26 14
31 14 45 1 14 -14 18 -13 42 10 22 21 26 30 17 44 -14 22 29 131 54 138 26 6
26 82 1 82 -12 0 -27 20 -45 58 -23 50 -25 59 -12 73 12 13 10 19 -17 45 -29
28 -31 28 -44 10 -11 -14 -18 -16 -27 -9 -7 6 -33 18 -58 26 -35 12 -45 20
-44 36 0 18 -5 21 -43 21 -38 0 -43 -3 -43 -22z m130 -157 c99 -72 92 -209
-14 -260 -54 -27 -83 -26 -136 2 -114 60 -103 225 20 276 33 14 99 5 130 -18z"/>
<path d="M901 4984 c0 -11 3 -14 6 -6 3 7 2 16 -1 19 -3 4 -6 -2 -5 -13z"/>
<path d="M2106 4935 c3 -32 2 -36 -6 -20 -10 19 -10 19 -6 -2 2 -14 -2 -23
-13 -26 -15 -4 -15 -5 0 -6 29 -2 43 26 31 62 l-11 32 5 -40z"/>
<path d="M3035 4959 c-16 -24 17 -29 171 -27 133 3 159 5 159 18 0 13 -26 15
-162 18 -110 2 -164 -1 -168 -9z"/>
<path d="M931 4934 c0 -11 3 -14 6 -6 3 7 2 16 -1 19 -3 4 -6 -2 -5 -13z"/>
<path d="M936 4886 c-4 -16 -5 -31 -1 -34 3 -3 5 3 6 14 0 18 1 18 9 -1 11
-25 12 2 1 30 -7 17 -9 16 -15 -9z"/>
<path d="M2000 4900 c-13 -9 -13 -10 0 -9 8 0 24 4 35 9 l20 9 -20 0 c-11 0
-27 -4 -35 -9z"/>
<path d="M3030 4895 c0 -13 24 -15 171 -15 132 0 170 3 167 13 -4 9 -49 13
-171 15 -144 2 -167 0 -167 -13z"/>
<path d="M1927 4883 c-16 -4 -15 -7 8 -19 32 -17 49 -18 20 -2 -19 11 -19 11
0 19 22 8 2 10 -28 2z"/>
<path d="M2038 4873 c7 -3 16 -2 19 1 4 3 -2 6 -13 5 -11 0 -14 -3 -6 -6z"/>
<path d="M1850 4860 c-20 -6 -21 -8 -5 -8 11 0 29 3 40 8 25 11 -1 11 -35 0z"/>
<path d="M1998 4863 c7 -3 16 -2 19 1 4 3 -2 6 -13 5 -11 0 -14 -3 -6 -6z"/>
<path d="M1765 4840 l-30 -8 30 -1 c17 0 37 4 45 9 13 9 13 10 0 9 -8 -1 -28
-5 -45 -9z"/>
<path d="M1908 4843 c6 -2 18 -2 25 0 6 3 1 5 -13 5 -14 0 -19 -2 -12 -5z"/>
<path d="M3094 4834 c3 -9 6 -19 6 -23 0 -5 12 -20 26 -35 38 -37 102 -37 143
2 16 15 32 37 36 50 6 22 6 22 -105 22 -98 0 -111 -2 -106 -16z"/>
<path d="M961 4824 c0 -11 3 -14 6 -6 3 7 2 16 -1 19 -3 4 -6 -2 -5 -13z"/>
<path d="M1690 4820 c-21 -7 -21 -8 -5 -9 11 0 27 4 35 9 18 11 5 11 -30 0z"/>
<path d="M1781 4819 c-40 -16 -18 -19 29 -4 31 9 37 14 20 14 -14 0 -36 -5
-49 -10z"/>
<path d="M1633 4793 c-3 -10 -8 -22 -11 -27 -3 -5 3 -6 12 -3 14 6 17 3 12
-10 -6 -15 -5 -16 5 -5 10 9 10 15 2 23 -6 6 -9 18 -6 25 3 8 2 14 -1 14 -4 0
-9 -8 -13 -17z"/>
<path d="M1440 4760 c-21 -7 -21 -8 -5 -9 11 0 27 4 35 9 18 11 5 11 -30 0z"/>
<path d="M961 4740 c0 -8 4 -24 9 -35 5 -13 9 -14 9 -5 0 8 -4 24 -9 35 -5 13
-9 14 -9 5z"/>
<path d="M1348 4733 c7 -3 16 -2 19 1 4 3 -2 6 -13 5 -11 0 -14 -3 -6 -6z"/>
<path d="M1560 4729 c-19 -4 -40 -7 -46 -5 -6 2 -11 -1 -11 -8 0 -10 10 -10
46 0 25 6 55 14 66 17 l20 5 -20 0 c-11 0 -36 -4 -55 -9z"/>
<path d="M4539 4713 c-13 -16 -12 -17 4 -4 16 13 21 21 13 21 -2 0 -10 -8 -17
-17z"/>
<path d="M1225 4705 c-22 -8 -31 -13 -20 -13 11 0 36 6 55 13 45 17 18 17 -35
0z"/>
<path d="M1308 4693 c7 -3 16 -2 19 1 4 3 -2 6 -13 5 -11 0 -14 -3 -6 -6z"/>
<path d="M1125 4680 l-20 -9 20 0 c11 0 29 4 40 9 l20 9 -20 0 c-11 0 -29 -4
-40 -9z"/>
<path d="M980 4653 c0 -15 18 -35 27 -32 5 2 1 12 -9 22 -10 9 -18 14 -18 10z"/>
<path d="M2842 4504 c9 -79 38 -148 82 -194 51 -53 59 -77 58 -160 -1 -112 6
-160 25 -160 9 0 13 6 10 14 -3 8 -7 53 -8 100 -1 75 2 91 29 150 l31 66 100
0 101 0 0 48 c0 26 5 53 10 58 17 17 -30 76 -80 102 -38 20 -55 22 -105 17
-188 -18 -183 -18 -223 3 l-38 20 8 -64z"/>
<path d="M3308 4440 c-14 -8 -18 -24 -18 -65 0 -51 2 -55 24 -55 19 0 27 -10
45 -51 11 -28 15 -47 8 -42 -16 13 -80 23 -106 16 -12 -3 -21 -12 -21 -19 0
-13 18 -16 118 -18 15 -1 31 -5 35 -11 7 -10 0 -153 -9 -187 -9 -29 41 -23 65
8 26 33 27 65 2 95 -14 17 -17 29 -10 46 5 13 11 52 15 88 8 76 -8 144 -41
175 -26 24 -83 35 -107 20z"/>
<path d="M2167 4320 c-3 -11 -1 -20 4 -20 5 0 9 9 9 20 0 11 -2 20 -4 20 -2 0
-6 -9 -9 -20z"/>
<path d="M2170 4276 c0 -8 -6 -17 -12 -19 -8 -3 -6 -6 5 -6 11 -1 17 6 17 19
0 11 -2 20 -5 20 -3 0 -5 -6 -5 -14z"/>
<path d="M3071 4237 c-62 -21 -50 -38 21 -31 74 8 92 19 54 34 -33 12 -32 12
-75 -3z"/>
<path d="M1843 4073 c-20 -43 -45 -88 -55 -99 -12 -13 -15 -24 -10 -28 7 -4 1
-23 -13 -49 -36 -64 -128 -313 -213 -571 l-25 -79 -86 7 c-150 11 -320 65
-415 132 -55 38 -122 115 -147 169 -16 33 -29 51 -29 40 0 -38 49 -126 101
-181 114 -120 285 -188 506 -201 95 -5 116 -3 137 11 24 15 26 22 26 99 0 58
6 94 19 122 23 51 98 118 149 133 40 12 72 15 72 8 0 -3 -27 -83 -60 -177 -33
-95 -57 -176 -52 -180 4 -4 19 -11 34 -14 25 -6 28 -2 72 92 26 54 64 134 85
178 l37 80 56 -53 c70 -67 96 -68 138 -10 33 45 74 165 67 195 -2 11 -7 2 -12
-22 -9 -48 -48 -128 -75 -155 -31 -31 -60 -24 -111 26 l-47 46 43 92 c47 98
75 176 75 204 0 19 -57 52 -89 52 -20 0 -65 -84 -117 -220 -31 -82 -33 -85
-68 -91 -20 -3 -36 -3 -36 1 0 4 16 41 35 82 19 42 40 97 47 124 7 27 21 56
30 66 9 9 14 25 12 35 -3 10 8 54 25 96 l30 78 -45 20 c-25 10 -48 19 -50 19
-3 0 -21 -35 -41 -77z"/>
<path d="M3045 4140 c3 -5 26 -10 50 -10 24 0 47 5 50 10 4 6 -15 10 -50 10
-35 0 -54 -4 -50 -10z"/>
<path d="M3220 4115 c0 -28 -4 -35 -20 -35 -11 0 -20 -3 -20 -7 0 -5 11 -8 25
-8 23 0 25 4 25 43 0 23 -2 42 -5 42 -3 0 -5 -16 -5 -35z"/>
<path d="M3265 4140 c3 -5 28 -10 55 -10 27 0 52 5 55 10 4 6 -17 10 -55 10
-38 0 -59 -4 -55 -10z"/>
<path d="M5415 3852 c-16 -29 -27 -38 -52 -40 -40 -4 -41 -11 -8 -42 21 -19
24 -30 19 -57 -7 -36 -1 -39 36 -19 21 12 29 12 52 0 38 -20 41 -18 35 20 -5
28 -1 38 25 62 l30 29 -38 5 c-32 4 -42 12 -59 42 l-21 37 -19 -37z"/>
<path d="M3090 3835 c0 -3 14 -26 30 -50 35 -51 97 -90 158 -100 l42 -7 0 82
0 81 -32 -22 c-19 -14 -51 -24 -83 -27 -44 -4 -55 -1 -83 23 -18 15 -32 24
-32 20z"/>
<path d="M4880 3640 c-9 -6 -10 -10 -3 -10 6 0 15 5 18 10 8 12 4 12 -15 0z"/>
<path d="M4846 3622 c-3 -5 1 -9 9 -9 8 0 12 4 9 9 -3 4 -7 8 -9 8 -2 0 -6 -4
-9 -8z"/>
<path d="M4840 3592 c0 -6 -10 -20 -22 -32 -12 -11 -18 -23 -15 -27 4 -3 7 -1
7 6 0 7 4 10 9 7 9 -6 35 44 26 52 -3 3 -5 0 -5 -6z"/>
<path d="M4373 3463 c-20 -8 -15 -37 10 -61 23 -21 205 -112 226 -112 6 0 12
-20 13 -47 1 -39 2 -42 5 -14 5 41 -4 81 -18 81 -17 0 -162 69 -201 97 -46 31
-47 39 -9 48 33 7 230 -12 246 -24 5 -5 28 -11 50 -14 251 -35 707 -173 884
-268 64 -33 99 -64 87 -77 -10 -9 -157 -5 -219 7 -48 9 -76 -1 -34 -13 37 -10
223 -19 251 -12 37 9 33 39 -8 71 -86 66 -402 182 -725 267 -167 44 -202 51
-326 67 -81 11 -210 14 -232 4z"/>
<path d="M4783 3345 c0 -27 2 -38 4 -22 2 15 2 37 0 50 -2 12 -4 0 -4 -28z"/>
<path d="M4801 3224 c0 -11 3 -14 6 -6 3 7 2 16 -1 19 -3 4 -6 -2 -5 -13z"/>
<path d="M4631 3174 c0 -11 3 -14 6 -6 3 7 2 16 -1 19 -3 4 -6 -2 -5 -13z"/>
<path d="M4824 3149 c-3 -6 6 -23 21 -38 l28 -26 -21 31 c-12 17 -19 34 -15
38 3 3 4 6 0 6 -3 0 -9 -5 -13 -11z"/>
<path d="M4646 3117 c3 -10 9 -15 12 -12 3 3 0 11 -7 18 -10 9 -11 8 -5 -6z"/>
<path d="M4450 3011 c-9 -24 -20 -31 -52 -36 l-40 -7 27 -28 c22 -23 27 -36
23 -64 -5 -42 -6 -41 32 -21 27 14 33 14 60 0 40 -21 42 -20 34 21 -5 30 -2
40 20 63 l27 28 -39 7 c-32 5 -42 12 -52 36 -16 38 -24 38 -40 1z"/>
<path d="M4740 2976 c0 -2 8 -10 18 -17 15 -13 16 -12 3 4 -13 16 -21 21 -21
13z"/>
<path d="M5078 2953 c7 -3 16 -2 19 1 4 3 -2 6 -13 5 -11 0 -14 -3 -6 -6z"/>
<path d="M5143 2943 c9 -2 23 -2 30 0 6 3 -1 5 -18 5 -16 0 -22 -2 -12 -5z"/>
<path d="M5135 2891 c3 -6 -10 -8 -32 -6 l-38 5 33 -9 c36 -9 72 -4 72 10 0 5
-9 9 -21 9 -11 0 -18 -4 -14 -9z"/>
<path d="M4963 2883 c9 -2 25 -2 35 0 9 3 1 5 -18 5 -19 0 -27 -2 -17 -5z"/>
<path d="M5078 2863 c7 -3 16 -2 19 1 4 3 -2 6 -13 5 -11 0 -14 -3 -6 -6z"/>
<path d="M4013 2823 c-47 -14 -72 -33 -42 -33 5 0 7 -4 4 -10 -3 -5 1 -10 9
-10 9 0 13 -6 10 -13 -7 -20 125 -245 207 -353 57 -74 149 -171 149 -156 0 6
-5 12 -11 12 -5 0 -7 4 -4 10 3 5 1 18 -4 27 -6 10 -11 14 -11 9 0 -6 -9 0
-20 12 -15 16 -18 27 -11 39 6 12 5 28 -5 48 l-13 30 5 -30 c4 -27 3 -28 -5
-7 -6 12 -8 28 -5 35 6 18 -41 119 -51 109 -5 -4 -5 -1 -1 6 9 15 -52 172 -67
172 -5 0 -6 7 -3 16 3 8 2 13 -3 10 -5 -3 -8 6 -8 20 0 13 -8 33 -17 43 -9 10
-14 20 -11 22 10 11 -44 6 -92 -8z"/>
<path d="M1478 2643 c-32 -37 -50 -89 -58 -167 -8 -82 -37 -214 -50 -229 -4
-5 -10 3 -14 18 -15 61 -83 142 -111 132 -36 -14 0 -122 63 -186 l44 -46 -22
-117 c-12 -65 -24 -118 -26 -118 -2 0 -10 15 -18 34 -34 82 -136 154 -136 96
0 -50 90 -174 138 -191 8 -3 7 -33 -3 -103 -8 -54 -16 -100 -19 -103 -2 -2
-12 11 -21 31 -20 41 -97 116 -120 116 -47 0 -16 -88 55 -154 26 -24 56 -46
67 -50 19 -6 20 -13 15 -76 -4 -60 -2 -70 12 -70 13 0 16 12 16 68 l0 69 39
11 c44 14 125 81 147 123 28 56 -7 65 -78 20 -25 -16 -55 -43 -68 -60 -12 -18
-24 -30 -27 -27 -3 2 1 47 7 100 10 77 16 96 29 96 59 1 191 103 191 147 0 47
-90 14 -154 -57 -21 -23 -39 -40 -41 -38 -3 3 26 166 40 224 4 17 15 23 49 28
78 12 201 103 182 135 -19 30 -107 -3 -177 -66 l-40 -36 6 29 c31 131 49 192
65 209 25 28 47 74 61 128 19 78 -5 123 -43 80z"/>
<path d="M3768 2312 c-310 -2 -318 -3 -318 -22 0 -20 -9 -20 -592 -22 l-593
-3 595 -5 c327 -3 738 -4 912 -2 311 2 317 3 323 23 4 12 3 24 -2 28 -4 3
-151 5 -325 3z"/>
<path d="M2180 2243 c0 -7 94 -63 105 -63 19 0 -3 21 -44 43 -52 29 -61 32
-61 20z"/>
<path d="M4143 2210 c-40 -23 -73 -45 -73 -51 0 -13 -3 -14 87 36 40 22 73 43
73 48 0 13 -13 8 -87 -33z"/>
<path d="M2010 2044 c0 -19 4 -33 9 -30 5 4 7 -4 3 -16 -3 -13 -1 -19 5 -15 7
4 9 0 6 -11 -6 -25 72 -113 94 -105 11 4 14 3 9 -5 -4 -7 0 -15 9 -19 22 -8
35 13 35 58 0 85 -60 158 -143 173 -25 4 -27 2 -27 -30z m83 -132 c12 -10 23
-24 25 -31 2 -7 -11 -1 -28 15 -16 16 -30 30 -30 31 0 8 14 1 33 -15z"/>
<path d="M4347 2068 c-48 -13 -107 -79 -107 -121 0 -26 2 -28 17 -16 15 13 15
12 -1 -12 -9 -15 -15 -40 -14 -56 2 -27 4 -29 20 -19 10 6 18 15 18 20 0 4 -8
2 -17 -5 -16 -13 -17 -12 -4 4 15 19 47 24 35 5 -5 -7 -3 -8 5 -4 7 5 16 19
22 33 5 13 14 21 19 18 14 -9 60 93 60 133 0 17 -3 32 -7 31 -5 -1 -25 -6 -46
-11z"/>
<path d="M3263 1868 c-11 -18 -39 -66 -63 -106 -23 -40 -40 -75 -37 -78 10
-10 151 16 181 34 16 9 38 29 49 44 20 26 20 30 5 61 -11 23 -31 41 -62 55
-25 12 -48 22 -50 22 -2 0 -13 -15 -23 -32z"/>
<path d="M1788 1543 c6 -2 18 -2 25 0 6 3 1 5 -13 5 -14 0 -19 -2 -12 -5z"/>
<path d="M4578 1543 c12 -2 32 -2 45 0 12 2 2 4 -23 4 -25 0 -35 -2 -22 -4z"/>
<path d="M4440 1510 c-9 -6 -10 -10 -3 -10 6 0 15 5 18 10 8 12 4 12 -15 0z"/>
<path d="M1740 1500 c0 -5 5 -10 10 -10 6 0 10 5 10 10 0 6 -4 10 -10 10 -5 0
-10 -4 -10 -10z"/>
<path d="M4389 1479 l-24 -20 28 17 c15 9 27 18 27 20 0 8 -8 4 -31 -17z"/>
<path d="M1712 1460 c0 -14 2 -19 5 -12 2 6 2 18 0 25 -3 6 -5 1 -5 -13z"/>
<path d="M1474 1125 c0 -181 2 -257 3 -168 2 89 2 237 0 330 -1 92 -3 20 -3
-162z"/>
<path d="M1354 1115 c0 -181 2 -257 3 -168 2 89 2 237 0 330 -1 92 -3 20 -3
-162z"/>
<path d="M2570 1405 c0 -24 2 -25 70 -25 68 0 70 1 70 25 0 24 -2 25 -70 25
-68 0 -70 -1 -70 -25z"/>
<path d="M2770 1405 c0 -24 2 -25 70 -25 68 0 70 1 70 25 0 24 -2 25 -70 25
-68 0 -70 -1 -70 -25z"/>
<path d="M2080 1413 c0 -6 8 -17 18 -24 16 -13 16 -13 2 6 -8 11 -16 22 -17
24 -2 2 -3 0 -3 -6z"/>
<path d="M3030 1400 c0 -7 147 -10 420 -10 273 0 420 3 420 10 0 7 -147 10
-420 10 -273 0 -420 -3 -420 -10z"/>
<path d="M4671 1384 c0 -11 3 -14 6 -6 3 7 2 16 -1 19 -3 4 -6 -2 -5 -13z"/>
<path d="M4295 1379 c-4 -6 -5 -12 -2 -15 2 -3 7 2 10 11 7 17 1 20 -8 4z"/>
<path d="M2336 1200 c-233 -283 -396 -498 -396 -526 0 -66 123 -103 245 -74
76 18 671 99 806 110 168 13 331 3 704 -45 149 -19 304 -37 345 -40 41 -4 112
-13 158 -22 48 -9 105 -13 135 -10 29 3 99 10 157 16 238 24 297 78 215 197
-71 102 -140 134 -383 175 l-116 19 -197 -31 -196 -32 53 -83 c30 -45 54 -84
54 -87 0 -2 -10 -3 -22 -1 -13 2 -95 10 -183 19 -233 23 -222 20 -235 60 -6
19 -17 35 -23 35 -7 0 -122 -16 -257 -35 -246 -36 -711 -88 -718 -80 -2 2 5
16 16 32 11 15 93 138 182 273 89 135 171 253 182 263 19 16 12 17 -171 17
-163 0 -191 2 -191 15 0 8 -3 15 -7 15 -5 -1 -75 -82 -157 -180z m215 -190
c36 -20 22 -59 -64 -185 -67 -99 -87 -121 -109 -123 -22 -3 -30 2 -39 22 -11
24 -5 36 71 151 71 107 100 143 118 145 2 0 12 -5 23 -10z"/>
<path d="M2121 1350 c14 -31 19 -36 19 -24 0 6 -7 19 -16 30 -14 18 -14 18 -3
-6z"/>
<path d="M4691 1324 c0 -11 3 -14 6 -6 3 7 2 16 -1 19 -3 4 -6 -2 -5 -13z"/>
<path d="M3089 1318 c-1 -7 -1 -24 0 -38 1 -17 -1 -21 -7 -12 -6 9 -12 2 -20
-24 l-11 -36 31 6 c17 3 40 6 52 6 13 0 16 3 10 8 -7 4 16 8 50 8 55 2 484 80
495 90 2 2 -131 4 -297 4 -234 0 -302 -3 -303 -12z m35 -14 c4 -10 1 -14 -6
-12 -15 5 -23 28 -10 28 5 0 13 -7 16 -16z m11 -34 c3 -5 1 -10 -4 -10 -6 0
-11 5 -11 10 0 6 2 10 4 10 3 0 8 -4 11 -10z m218 3 c-7 -2 -21 -2 -30 0 -10
3 -4 5 12 5 17 0 24 -2 18 -5z m-76 -9 c-3 -3 -12 -4 -19 -1 -8 3 -5 6 6 6 11
1 17 -2 13 -5z"/>
<path d="M5042 1298 c-32 -32 -15 -38 118 -38 l130 0 0 -25 c0 -24 2 -25 65
-25 63 0 65 1 65 25 0 17 -5 25 -18 25 -9 0 -22 10 -27 23 -10 21 -15 22 -165
25 -113 2 -159 -1 -168 -10z"/>
<path d="M4998 1253 c7 -3 16 -2 19 1 4 3 -2 6 -13 5 -11 0 -14 -3 -6 -6z"/>
<path d="M2163 1180 c0 -36 2 -50 4 -32 2 17 2 47 0 65 -2 17 -4 3 -4 -33z"/>
<path d="M1785 1170 c10 -11 20 -20 23 -20 3 0 -3 9 -13 20 -10 11 -20 20 -23
20 -3 0 3 -9 13 -20z"/>
<path d="M4241 1114 c0 -11 3 -14 6 -6 3 7 2 16 -1 19 -3 4 -6 -2 -5 -13z"/>
<path d="M1870 1096 c0 -2 7 -7 16 -10 8 -3 12 -2 9 4 -6 10 -25 14 -25 6z"/>
<path d="M4251 1083 c-2 -23 22 -63 38 -63 13 0 12 2 -2 13 -9 6 -21 23 -26
37 -5 14 -10 20 -10 13z"/>
<path d="M4489 1073 c-13 -16 -12 -17 4 -4 16 13 21 21 13 21 -2 0 -10 -8 -17
-17z"/>
<path d="M5315 1080 c-38 -5 -44 -7 -25 -12 24 -5 24 -5 3 -7 -22 -1 -34 -21
-12 -21 5 0 8 -4 5 -9 -7 -11 27 -9 35 2 3 5 13 1 22 -7 15 -15 17 -13 23 19
3 20 5 37 3 38 -2 1 -26 0 -54 -3z"/>
<path d="M5248 1051 c-5 -18 -8 -43 -8 -55 1 -19 2 -19 11 -3 6 9 9 34 7 55
l-3 37 -7 -34z"/>
<path d="M1978 1053 c7 -3 16 -2 19 1 4 3 -2 6 -13 5 -11 0 -14 -3 -6 -6z"/>
<path d="M4388 1043 c7 -3 16 -2 19 1 4 3 -2 6 -13 5 -11 0 -14 -3 -6 -6z"/>
<path d="M2078 1033 c7 -3 16 -2 19 1 4 3 -2 6 -13 5 -11 0 -14 -3 -6 -6z"/>
<path d="M4318 1033 c6 -2 18 -2 25 0 6 3 1 5 -13 5 -14 0 -19 -2 -12 -5z"/>
<path d="M1065 770 c-44 -4 -17 -7 104 -13 161 -8 477 0 465 12 -7 7 -484 8
-569 1z"/>
<path d="M5030 771 c-78 -11 162 -23 286 -14 98 7 104 8 59 14 -61 9 -283 8
-345 0z"/>
</g>
</svg>
