<?xml version="1.0" standalone="no"?>
<!DOCTYPE svg PUBLIC "-//W3C//DTD SVG 20010904//EN"
 "http://www.w3.org/TR/2001/REC-SVG-20010904/DTD/svg10.dtd">
<svg version="1.0" xmlns="http://www.w3.org/2000/svg"
 width="626.000000pt" height="606.000000pt" viewBox="0 0 626.000000 606.000000"
 preserveAspectRatio="xMidYMid meet">

<g transform="translate(0.000000,606.000000) scale(0.100000,-0.100000)"
fill="#4f46e5" stroke="none">
<path d="M3740 5959 c-65 -26 -85 -75 -55 -133 14 -27 14 -31 0 -45 -13 -14
-18 -13 -46 3 -29 17 -53 18 -90 2 -13 -6 -18 0 -23 27 -24 127 -193 158 -251
47 -9 -17 -23 -30 -34 -30 -11 0 -26 -3 -35 -6 -11 -4 -20 5 -32 35 -30 77
-88 100 -151 61 -43 -26 -55 -81 -29 -140 4 -10 -4 -21 -25 -33 -30 -16 -32
-16 -56 3 -34 26 -81 34 -131 21 -49 -14 -102 -63 -102 -96 0 -16 -11 -30 -34
-45 -19 -11 -38 -30 -41 -41 -4 -13 -12 -18 -22 -15 -58 22 -142 5 -163 -33
-6 -13 -17 -16 -41 -13 -68 10 -138 -58 -142 -138 -1 -39 -2 -40 -32 -34 -40
7 -82 -10 -123 -49 -44 -42 -62 -78 -62 -122 l0 -35 -49 0 c-85 0 -151 -66
-151 -152 0 -28 -4 -38 -16 -38 -44 0 -94 -54 -94 -100 0 -17 -7 -20 -44 -20
-107 0 -155 -127 -68 -177 20 -11 31 -28 38 -58 l10 -42 -42 5 c-37 4 -46 0
-83 -33 -83 -75 -77 -166 14 -206 25 -11 45 -26 45 -33 0 -7 10 -26 22 -41 16
-21 21 -39 19 -71 -3 -49 23 -84 62 -84 29 0 64 -34 47 -45 -22 -14 -70 -99
-70 -125 0 -41 26 -70 63 -70 48 0 63 -30 37 -72 -24 -39 -25 -69 -5 -107 21
-41 72 -54 116 -31 13 7 19 7 19 0 0 -5 7 -10 15 -10 18 0 18 1 0 -44 -9 -21
-11 -36 -5 -36 5 0 10 -5 10 -12 0 -7 17 -29 37 -51 26 -26 32 -36 18 -31 -27
10 -65 45 -65 60 0 7 -4 15 -9 18 -22 14 5 -47 31 -69 35 -29 59 -31 98 -8 28
16 29 16 50 -8 11 -13 27 -39 35 -56 11 -27 20 -33 45 -33 17 0 49 9 72 21
l41 21 43 -43 c37 -37 51 -43 116 -55 70 -12 74 -12 91 8 17 21 19 21 55 4 42
-21 128 -32 167 -22 32 8 75 52 75 77 0 30 12 22 50 -32 19 -27 63 -73 97
-101 35 -28 61 -53 59 -55 -2 -2 -25 1 -50 8 -95 24 -243 -12 -267 -64 -6 -14
-29 -33 -50 -43 -22 -9 -37 -19 -35 -21 2 -3 17 2 33 10 l28 15 0 -107 c1 -58
9 -152 19 -208 19 -109 24 -184 31 -468 l5 -180 -98 -175 c-76 -136 -102 -176
-120 -178 -12 -2 -22 1 -22 6 0 4 13 55 29 113 16 57 29 104 28 105 -1 1 -45
15 -98 33 -52 17 -131 49 -175 71 -43 22 -70 33 -59 25 19 -15 19 -16 1 -63
-10 -26 -33 -90 -51 -142 -30 -88 -36 -97 -76 -123 -24 -16 -43 -33 -41 -38 1
-6 -2 -8 -8 -4 -14 9 -321 -186 -313 -198 3 -6 1 -7 -5 -3 -6 4 -31 -6 -54
-20 -24 -15 -63 -31 -88 -35 -73 -12 -245 7 -560 60 -606 103 -540 95 -585 75
-39 -17 -39 -17 -15 -25 14 -5 185 -31 380 -59 803 -115 850 -126 850 -204 0
-18 -6 -41 -14 -52 -18 -24 -79 -23 -271 5 -77 11 -309 45 -515 76 -206 30
-386 57 -399 60 -24 6 -24 7 12 36 60 49 43 98 -22 64 -17 -8 -31 -13 -31 -10
0 2 17 13 38 24 20 11 33 20 27 20 -5 0 -84 -37 -174 -83 -176 -88 -176 -89
-76 -102 126 -16 753 -108 880 -130 249 -41 290 -59 283 -125 -2 -21 -12 -39
-30 -52 l-28 -21 -392 57 c-216 32 -472 69 -568 83 -215 31 -212 30 -175 54
29 19 51 48 42 56 -8 8 -137 -80 -137 -93 0 -7 23 -14 57 -18 78 -9 92 -13 73
-25 -20 -12 -12 -17 35 -24 455 -65 891 -130 941 -139 l63 -12 -54 -70 c-30
-38 -59 -71 -64 -73 -5 -2 -207 27 -450 63 -243 36 -444 65 -448 65 -4 0 10
15 30 34 45 41 50 66 8 39 -16 -10 -51 -33 -78 -52 l-48 -35 30 -7 c17 -4 75
-15 129 -23 67 -10 103 -20 108 -31 5 -8 23 -15 41 -15 42 0 573 -75 611 -87
16 -4 15 -7 -10 -24 -16 -10 -26 -19 -21 -19 23 0 93 61 141 124 74 96 121
147 183 194 87 67 203 99 273 77 20 -6 11 -11 -51 -29 -134 -39 -232 -113
-315 -237 -25 -38 -62 -81 -82 -97 -45 -35 -141 -85 -199 -102 l-42 -13 3
-106 c3 -125 28 -202 86 -262 l36 -38 -48 -11 c-137 -29 -274 14 -329 104 -38
63 -14 144 63 211 24 21 34 33 22 27 -27 -14 -90 -84 -98 -110 -4 -11 -13 -22
-20 -25 -12 -5 -435 52 -445 59 -1 2 14 20 35 40 20 21 32 40 26 42 -14 4
-142 -80 -142 -94 0 -7 21 -15 48 -18 26 -4 145 -23 264 -43 205 -35 217 -38
223 -60 8 -34 72 -101 119 -125 50 -26 162 -35 236 -19 45 10 56 9 70 -4 9 -8
21 -15 26 -15 5 0 2 5 -6 10 -13 9 -13 12 0 23 10 8 14 26 12 54 -3 44 4 52
27 31 8 -7 -1 8 -20 33 -40 55 -47 44 -29 -43 10 -46 10 -62 1 -71 -16 -16
-27 3 -41 70 -15 70 -10 133 12 147 14 8 23 5 45 -16 l28 -27 2 30 c3 42 41
93 58 79 15 -13 55 3 55 21 0 6 5 7 10 4 6 -4 8 -10 5 -15 -3 -5 4 -12 16 -15
27 -9 49 -62 49 -119 l0 -45 46 -3 c59 -4 77 -26 49 -60 l-20 -23 23 19 c12
11 22 25 22 32 0 21 34 34 89 34 39 0 56 6 82 27 31 26 37 27 141 28 l110 0
24 -76 c13 -42 33 -84 44 -94 26 -23 94 -35 136 -24 24 7 53 5 111 -10 106
-26 181 -38 364 -56 91 -9 180 -23 214 -35 105 -36 245 -22 365 38 95 47 136
138 197 445 19 100 42 187 49 193 22 18 313 96 337 90 12 -3 30 -11 40 -18 16
-12 12 -21 -49 -120 -60 -97 -68 -106 -80 -90 -10 12 -9 5 2 -23 9 -22 21 -46
27 -54 9 -10 6 -18 -11 -32 -28 -22 -111 -36 -121 -20 -13 20 -33 -90 -39
-208 -3 -86 -2 -112 7 -107 7 4 19 2 28 -6 12 -10 66 -13 217 -15 138 -1 251
-8 360 -22 292 -38 409 -38 567 3 41 11 56 11 61 3 5 -8 8 -5 8 6 0 10 3 17 8
15 4 -2 25 -12 47 -22 69 -32 219 -17 760 73 264 44 491 81 504 83 44 5 33 27
-36 72 -74 48 -99 42 -39 -10 l37 -32 -33 -6 c-115 -20 -1007 -148 -1071 -153
-66 -5 -80 -3 -97 12 -27 24 -26 78 0 103 39 36 137 55 804 151 231 34 421 63
424 65 2 3 -68 41 -157 86 l-161 80 -12 -25 c-14 -31 1 -64 40 -87 20 -13 23
-18 12 -22 -16 -5 -638 -97 -963 -143 -206 -29 -231 -26 -243 23 -10 41 7 77
46 95 42 20 204 50 440 84 96 13 281 40 410 59 290 43 310 45 337 46 13 0 22
5 20 12 -1 8 39 19 120 32 67 12 125 24 128 28 9 8 -133 103 -142 95 -3 -4 11
-23 31 -42 25 -23 33 -37 24 -40 -7 -2 -92 -16 -188 -30 -586 -87 -927 -135
-950 -135 -38 0 -60 20 -66 62 -5 31 -2 40 20 61 15 14 37 27 49 30 148 33
296 57 792 128 381 54 395 57 374 70 -20 12 -11 16 61 25 45 6 65 13 65 23 0
8 -30 34 -67 58 -74 46 -89 40 -33 -13 l35 -33 -32 -6 c-18 -3 -141 -21 -273
-41 -860 -126 -870 -127 -898 -96 -24 27 -21 75 6 99 30 27 66 38 237 67 166
29 914 137 927 135 4 -1 15 0 23 4 8 3 22 7 30 9 8 3 -152 88 -355 191 -551
277 -606 306 -570 307 17 0 55 9 85 20 30 11 66 19 79 20 13 0 39 11 57 25 18
14 42 25 54 25 37 0 89 30 125 73 19 22 35 46 35 53 0 7 15 21 34 32 19 11 42
32 51 45 15 23 15 28 1 56 l-16 30 58 35 c48 29 61 43 70 74 7 22 12 42 12 45
0 3 -33 7 -72 9 l-73 3 -85 122 c-63 91 -91 122 -107 122 -13 1 -24 9 -28 22
-9 27 -16 20 -8 -9 3 -14 13 -22 27 -22 17 0 42 -28 104 -114 45 -63 82 -117
82 -120 0 -3 -192 -6 -426 -6 -281 0 -440 -4 -470 -11 -58 -15 -94 -57 -94
-110 l0 -39 -78 0 -78 0 -18 58 c-23 70 -46 117 -103 205 l-43 68 20 29 c11
16 40 46 63 66 23 20 32 32 21 26 -12 -7 -43 -35 -68 -63 l-47 -52 -26 24
c-15 13 -8 2 16 -26 57 -66 118 -171 147 -251 13 -36 24 -70 24 -76 0 -7 -19
-9 -56 -5 -49 5 -61 11 -92 45 -21 22 -50 42 -67 46 -31 6 -602 93 -955 146
-113 17 -215 33 -227 35 -22 5 -19 13 69 189 l91 183 71 -28 c70 -28 130 -40
71 -15 l-30 13 32 17 c33 17 63 61 63 92 0 9 -12 42 -26 71 -14 30 -24 57 -22
59 2 2 21 -2 42 -8 29 -9 42 -20 53 -46 8 -19 17 -32 19 -29 3 3 0 15 -6 27
-15 28 -12 30 36 23 l41 -5 7 -67 c3 -36 6 -94 6 -128 0 -56 -2 -62 -22 -65
-13 -2 6 -7 42 -12 36 -4 114 -16 174 -26 61 -11 112 -17 115 -15 2 3 -3 5
-13 5 -15 0 -16 7 -11 43 3 23 7 89 8 147 2 94 0 108 -20 136 -13 17 -40 39
-60 49 -21 10 -40 19 -42 21 -2 2 45 55 106 116 118 122 174 198 194 266 11
37 17 44 52 54 59 18 129 86 163 160 25 55 29 75 29 153 0 104 -22 165 -82
227 -19 20 -33 41 -29 46 7 12 59 23 102 22 17 0 37 6 44 15 7 8 20 15 30 15
25 0 50 32 50 66 0 22 8 33 31 47 17 9 33 26 36 37 4 14 14 20 32 20 36 0 71
34 71 68 0 32 -16 52 -42 52 -12 0 -18 8 -18 24 0 13 -7 29 -15 36 -19 16 -13
22 22 26 63 7 111 79 91 136 -6 17 -20 31 -34 34 -13 3 -24 8 -24 11 0 15 23
43 35 43 20 0 55 40 55 64 0 11 -7 28 -17 38 -28 31 6 21 38 -11 45 -46 37
-77 -30 -108 l-26 -13 25 6 c38 10 70 44 70 76 0 34 -39 78 -69 78 -18 0 -19
3 -10 30 8 21 7 40 -2 67 -7 21 -12 50 -10 65 2 19 -6 36 -23 53 -14 14 -26
33 -26 41 0 8 -11 19 -24 25 -21 10 -24 17 -19 44 4 27 0 39 -21 59 -14 15
-39 29 -55 32 -17 4 -31 14 -34 25 -3 12 -14 19 -30 19 -32 0 -57 29 -57 67 0
43 -30 67 -75 60 -29 -5 -35 -3 -35 11 0 20 41 47 87 57 27 5 37 2 58 -19 16
-16 23 -31 18 -42 -4 -12 -3 -15 5 -10 20 12 14 54 -10 70 -30 21 -64 20 -115
-4 l-43 -19 -19 44 c-29 67 -86 90 -145 60 -35 -19 -36 -19 -36 0 0 9 7 18 15
22 19 7 45 55 45 82 0 12 12 35 28 51 37 42 96 51 135 20 22 -18 27 -29 27
-68 0 -34 3 -43 10 -32 13 20 12 64 -2 94 -23 52 -120 52 -168 1 -27 -29 -36
-31 -44 -9 -6 16 6 45 33 79 9 12 4 9 -10 -6 -15 -14 -28 -32 -30 -38 -3 -8
-12 -8 -36 1 -23 9 -41 9 -67 1 -32 -10 -36 -9 -36 7 0 11 -4 21 -9 24 -5 3
-12 21 -15 39 -14 76 -106 109 -160 58 -14 -14 -26 -29 -26 -34 0 -6 11 2 25
17 33 35 86 36 122 0 28 -28 25 -41 -5 -25 -12 6 -34 11 -50 11 -32 0 -82 -33
-82 -55 0 -7 -13 -15 -29 -17 -23 -3 -32 1 -45 23 -24 40 -20 74 10 98 15 12
33 21 40 21 7 0 16 5 19 10 7 12 7 12 -25 -1z m145 -111 c24 -11 34 -28 16
-28 -4 0 -25 -11 -46 -25 -35 -24 -39 -25 -55 -10 -20 18 -17 42 8 63 20 15
44 15 77 0z m-1848 -723 c34 -24 19 -48 -26 -40 -46 7 -101 -20 -119 -58 -12
-24 -11 -32 2 -51 12 -19 13 -27 2 -41 -11 -16 -15 -15 -39 15 -15 17 -27 43
-27 57 0 39 30 94 64 114 38 23 113 25 143 4z m2607 -77 c21 -30 20 -54 -1
-61 -10 -2 -26 -8 -35 -12 -14 -5 -18 -2 -18 12 0 10 -5 24 -12 31 -8 8 -5 16
13 31 31 26 35 26 53 -1z m-2932 -235 c17 -15 16 -17 -21 -49 -21 -18 -44 -47
-51 -64 -16 -39 -35 -38 -60 3 -25 39 -19 73 16 105 30 27 89 30 116 5z m-92
-261 c0 -5 -9 -17 -20 -27 -24 -21 -37 -80 -21 -98 14 -17 -5 -87 -23 -87 -20
0 -66 40 -76 65 -22 58 48 155 110 155 17 0 30 -4 30 -8z m2530 -511 c0 -5 -7
-28 -15 -51 -8 -23 -15 -63 -14 -89 l1 -46 15 48 c14 45 15 47 51 46 74 -3 94
-12 108 -49 17 -48 17 -147 0 -204 -33 -110 -120 -186 -211 -186 -60 0 -100
17 -145 63 -30 30 -60 83 -60 106 0 5 10 12 23 14 20 4 19 4 -4 6 -22 1 -28 7
-32 34 -17 110 50 248 143 297 36 20 140 28 140 11z m65 -27 c34 -22 31 -36
-7 -32 -25 2 -34 8 -36 26 -4 26 9 28 43 6z m-779 -184 c31 -12 30 -15 -11
-24 -23 -5 -26 -4 -15 4 11 8 8 9 -15 4 -46 -10 -64 -23 -85 -57 -32 -51 -26
-103 14 -143 19 -19 43 -34 54 -34 39 0 33 -20 -7 -26 -23 -4 -38 -10 -36 -14
3 -5 -11 -17 -30 -29 -19 -11 -35 -25 -35 -30 0 -12 55 -12 95 -1 17 5 50 11
73 14 24 2 47 7 50 11 10 9 -19 24 -61 31 l-37 7 47 22 c74 35 102 70 99 125
-2 25 -7 54 -11 65 l-8 20 22 -20 c66 -58 92 -210 52 -297 -25 -51 -81 -112
-126 -135 -40 -21 -153 -29 -199 -13 -49 16 -140 101 -160 150 -8 22 -16 70
-17 108 -3 157 105 271 258 272 34 0 74 -5 89 -10z m-51 -40 c-3 -5 -14 -10
-23 -10 -15 0 -15 2 -2 10 20 13 33 13 25 0z m-10 -40 c8 -26 -1 -40 -26 -40
-22 0 -34 22 -25 45 8 22 44 18 51 -5z m145 -42 c0 -5 -4 -8 -10 -8 -5 0 -10
10 -10 23 0 18 2 19 10 7 5 -8 10 -18 10 -22z m-7 -24 c10 -10 -21 -62 -44
-74 -39 -21 -105 -22 -130 -1 -29 23 -19 39 13 23 l23 -12 -24 6 c-16 4 -21 3
-17 -5 4 -6 24 -11 45 -11 28 0 44 7 66 30 16 17 35 30 42 30 8 0 11 5 8 10
-7 11 8 14 18 4z m334 -120 c9 -23 -23 -44 -64 -44 -37 0 -53 21 -33 45 17 21
89 20 97 -1z m238 -141 c-3 -16 -21 -50 -38 -78 -50 -79 -172 -201 -155 -156
2 5 26 34 53 63 47 49 115 145 115 162 0 7 22 35 29 36 2 0 0 -12 -4 -27z
m-1895 -39 c0 -11 -50 -2 -64 12 -21 20 -20 32 2 36 14 3 62 -33 62 -48z m199
-42 c-3 -6 -13 -6 -29 0 -24 10 -24 11 -5 18 21 8 40 -2 34 -18z m1463 -57
c-7 -38 -49 -67 -86 -60 -21 4 -26 3 -18 -3 11 -7 8 -11 -10 -15 -39 -11 -80
-8 -72 5 5 8 0 9 -14 6 -12 -4 -24 -3 -27 2 -2 4 19 10 48 13 29 4 81 21 117
40 36 19 66 35 66 35 1 1 -1 -9 -4 -23z m-801 -231 c4 -87 12 -143 24 -172 19
-47 81 -106 132 -124 38 -14 40 -21 14 -47 -11 -11 -17 -21 -15 -24 3 -3 -24
-64 -60 -136 -60 -119 -69 -131 -94 -132 -28 -1 55 -15 806 -129 385 -59 492
-79 492 -93 0 -12 -193 13 -590 77 -621 98 -760 118 -806 114 -48 -4 -49 -5
-234 -345 -79 -147 -149 -263 -156 -263 -8 0 -14 3 -14 6 0 6 183 339 314 572
l41 73 60 -5 c33 -2 50 -2 37 0 -22 5 -23 9 -20 87 1 45 -4 120 -11 167 -13
84 -10 290 7 420 l7 55 6 -40 c6 -40 6 -40 8 12 1 49 11 65 36 59 6 -2 13 -59
16 -132z m-330 -10 c-2 -51 4 -135 14 -201 16 -105 16 -137 -2 -120 -28 28
-46 370 -21 395 7 7 12 12 13 12 0 0 -2 -39 -4 -86z m3097 -766 c-5 -14 13
-13 -418 -28 -688 -23 -649 -20 -681 -47 -30 -26 -35 -21 -19 21 10 28 39 47
90 57 19 4 259 7 533 8 395 1 498 -2 495 -11z m-2571 -195 c-4 -42 -18 -83
-51 -146 -40 -77 -46 -96 -47 -155 l-2 -67 -7 50 c-10 66 -6 82 52 192 36 71
48 104 48 138 0 25 3 45 6 45 4 0 4 -26 1 -57z m1096 -155 c49 -47 54 -49 92
-43 21 3 66 17 100 31 89 37 92 38 66 19 -13 -10 -59 -31 -102 -45 l-78 -28
44 -23 c24 -13 41 -27 39 -31 -3 -5 -31 5 -62 21 -32 16 -81 32 -111 35 -58 6
-158 49 -206 89 -47 39 -22 42 29 4 50 -39 142 -77 183 -77 27 0 26 1 -19 48
-50 51 -108 137 -108 161 0 8 18 -14 40 -48 23 -35 64 -85 93 -113z m787 -153
c10 -13 9 -15 -11 -16 -21 -1 -20 -2 6 -8 31 -8 735 -358 735 -365 0 -3 -71
29 -157 71 -464 222 -565 263 -643 263 -69 0 -75 19 -7 21 27 1 33 3 18 6
l-25 5 25 19 c29 23 43 24 59 4z m-3026 -62 c-9 -7 -89 -54 -178 -105 -89 -50
-163 -94 -166 -98 -9 -10 -114 -59 -134 -62 -34 -5 -27 17 13 42 26 17 35 28
27 33 -7 6 -4 7 8 3 26 -9 86 30 80 52 -5 13 -4 14 4 3 10 -13 24 -7 185 86
12 7 21 18 19 24 -1 6 2 8 7 5 4 -3 39 11 77 32 64 35 69 36 72 18 2 -11 -4
-26 -14 -33z m581 37 c110 -16 396 -72 392 -77 -3 -2 -87 10 -188 28 -101 17
-224 34 -274 37 -59 3 -83 7 -70 13 27 11 58 10 140 -1z m-2182 -117 c-7 -2
-19 -2 -25 0 -7 3 -2 5 12 5 14 0 19 -2 13 -5z m180 -20 c-7 -2 -19 -2 -25 0
-7 3 -2 5 12 5 14 0 19 -2 13 -5z m4252 -60 c-17 -93 -68 -192 -141 -275 -31
-35 -122 -94 -131 -84 -3 3 23 33 57 68 34 35 80 86 101 115 43 57 99 162 99
185 0 14 9 28 18 28 2 0 1 -17 -3 -37z m-2792 -168 c-2 -5 -45 -33 -96 -61
-50 -28 -144 -81 -208 -118 -76 -44 -122 -64 -133 -60 -10 4 -15 13 -12 21 3
8 1 11 -4 8 -5 -3 -19 -1 -31 6 l-22 12 24 13 c30 17 42 17 33 2 -4 -8 -3 -10
2 -5 5 5 9 13 9 17 0 19 380 254 396 245 5 -4 9 -3 8 2 -5 31 5 20 19 -22 10
-27 16 -54 15 -60z m-753 -141 c0 -2 -9 -4 -21 -4 -11 0 -18 4 -14 10 5 8 35
3 35 -6z m3475 -110 c89 -57 44 -56 -61 1 -76 42 -83 48 -68 60 15 11 22 10
43 -5 15 -9 53 -34 86 -56z m-1504 -163 c14 -83 8 -224 -16 -336 -15 -75 -81
-233 -92 -222 -2 3 3 19 12 37 42 81 84 404 70 539 -9 85 9 73 26 -18z m1332
31 c31 -21 54 -42 50 -46 -4 -4 0 -4 8 -1 9 3 22 -1 29 -10 7 -8 17 -15 22
-15 6 0 22 -8 36 -19 15 -10 45 -23 67 -29 25 -6 32 -10 18 -11 -13 -1 -41 -8
-62 -17 -40 -16 -41 -15 -113 17 -67 31 -126 65 -154 88 -7 6 -15 7 -18 4 -3
-4 -6 -2 -6 3 0 10 51 74 60 74 3 0 31 -17 63 -38z m-2810 -89 c15 -25 31 -58
34 -73 5 -25 2 -29 -28 -35 -19 -4 -58 -20 -86 -37 l-53 -29 -10 26 c-14 36
-13 58 6 105 17 42 67 90 94 90 8 -1 28 -21 43 -47z m2499 -100 c26 -24 24
-79 -4 -97 -27 -16 -162 -40 -183 -32 -26 9 -16 41 23 78 68 65 128 84 164 51z
m-313 -97 c30 -11 48 -13 55 -6 16 16 34 12 47 -11 11 -22 3 -38 -22 -43 -15
-3 -42 -13 -74 -26 -15 -7 -11 -8 18 -8 20 1 37 5 37 10 0 4 3 7 8 6 4 0 15 2
25 7 14 6 26 1 45 -19 l27 -26 -42 0 c-35 0 -41 -3 -45 -23 -4 -20 -1 -23 21
-20 84 13 90 27 39 80 -47 48 -20 40 32 -9 25 -24 39 -35 31 -26 -27 36 16 45
73 15 19 -9 19 -10 2 -23 -17 -12 -15 -14 15 -22 46 -11 52 -48 12 -79 l-28
-23 38 11 c49 13 92 8 92 -11 0 -11 -21 -18 -79 -28 -77 -13 -79 -12 -105 10
-25 22 -25 22 2 -8 28 -31 35 -58 17 -69 -5 -3 -10 2 -10 13 0 10 -10 27 -22
38 -21 18 -22 18 -8 0 13 -17 11 -21 -23 -52 -37 -34 -61 -42 -72 -24 -3 5 -1
19 5 30 10 18 8 19 -20 14 -31 -7 -53 5 -71 37 -7 13 -3 25 16 47 13 16 22 32
18 36 -6 6 -53 -56 -53 -69 0 -4 9 -18 20 -32 11 -14 20 -31 20 -37 -1 -12
-70 63 -70 76 0 4 15 25 33 45 53 62 63 81 18 36 -23 -24 -47 -43 -52 -43 -18
0 -21 30 -5 55 16 24 16 25 -11 14 -29 -11 -58 -5 -48 11 4 7 -3 7 -20 0 -72
-27 -105 1 -105 92 0 43 4 60 18 68 23 14 145 6 201 -14z m221 -46 c19 -12 12
-17 -29 -22 -36 -3 -56 17 -24 25 29 8 37 7 53 -3z m369 -263 c58 -28 83 -63
89 -125 5 -56 6 -55 -98 -77 -102 -21 -201 -28 -294 -20 l-86 7 6 26 c17 71
75 146 136 178 90 47 165 50 247 11z"/>
<path d="M4085 3928 l7 -26 -41 20 c-35 17 -45 18 -76 8 -48 -16 -75 -60 -75
-124 0 -43 4 -53 36 -82 37 -35 59 -41 84 -23 12 9 10 10 -8 6 -19 -5 -21 -3
-11 9 6 8 8 14 5 14 -4 0 10 15 31 32 21 18 45 41 54 50 9 10 19 15 23 11 15
-16 -10 105 -26 122 -6 6 -7 0 -3 -17z m-95 -18 c-16 -11 -40 -13 -40 -5 0 8
44 24 50 18 2 -2 -2 -8 -10 -13z m-16 -36 c9 -23 -12 -44 -40 -42 -13 1 -24 3
-24 5 0 1 4 13 10 27 11 29 44 35 54 10z"/>
<path d="M4036 3664 c-15 -15 -21 -34 -11 -34 19 0 52 25 48 36 -7 18 -18 18
-37 -2z"/>
<path d="M4103 3610 c0 -25 2 -35 4 -22 2 12 2 32 0 45 -2 12 -4 2 -4 -23z"/>
<path d="M3120 3623 c0 -12 69 -57 77 -49 3 3 1 6 -5 6 -6 0 -24 12 -41 26
-17 14 -31 22 -31 17z"/>
<path d="M2995 2973 c5 -59 33 -130 71 -181 27 -35 100 -92 117 -92 6 0 -10
13 -35 29 -76 48 -128 134 -148 242 l-9 54 4 -52z"/>
<path d="M2043 1395 c8 -9 18 -10 30 -4 23 13 22 14 -12 15 -23 1 -26 -2 -18
-11z"/>
<path d="M1777 1239 c7 -7 15 -10 18 -7 3 3 -2 9 -12 12 -14 6 -15 5 -6 -5z"/>
<path d="M4640 989 c0 -5 5 -7 10 -4 6 3 10 8 10 11 0 2 -4 4 -10 4 -5 0 -10
-5 -10 -11z"/>
<path d="M4730 936 c0 -3 9 -10 20 -16 11 -6 20 -8 20 -6 0 3 -9 10 -20 16
-11 6 -20 8 -20 6z"/>
<path d="M4293 772 c-35 -20 -97 -71 -92 -76 2 -2 33 6 69 18 45 15 66 27 68
40 6 30 -11 37 -45 18z"/>
<path d="M3887 693 c-9 -8 -9 -56 -1 -77 9 -22 45 -20 112 8 31 13 72 27 90
31 19 4 30 11 25 15 -20 20 -210 40 -226 23z"/>
<path d="M4079 593 c-13 -16 -12 -17 4 -4 16 13 21 21 13 21 -2 0 -10 -8 -17
-17z"/>
<path d="M4270 553 c0 -21 3 -24 9 -14 5 8 7 20 4 28 -8 21 -13 15 -13 -14z"/>
<path d="M4186 481 l-48 -49 43 8 c23 4 50 5 58 2 14 -5 14 -3 2 11 -7 9 -11
30 -9 47 3 16 4 30 3 30 0 0 -22 -22 -49 -49z"/>
<path d="M4270 500 c0 -17 3 -19 18 -11 46 27 48 31 15 31 -27 0 -33 -4 -33
-20z"/>
<path d="M4191 5861 c-10 -6 0 -8 27 -4 29 4 49 1 67 -11 14 -9 25 -12 25 -7
0 26 -88 42 -119 22z"/>
<path d="M2574 3054 c-18 -14 -18 -15 4 -4 12 6 22 13 22 15 0 8 -5 6 -26 -11z"/>
<path d="M2519 3022 c-18 -15 -20 -20 -8 -27 8 -5 11 -5 7 0 -4 4 3 16 15 26
12 10 19 18 16 19 -4 0 -17 -8 -30 -18z"/>
<path d="M2444 2958 l-19 -23 23 19 c21 18 27 26 19 26 -2 0 -12 -10 -23 -22z"/>
<path d="M2540 2925 c0 -5 5 -17 10 -25 5 -8 10 -10 10 -5 0 6 -5 17 -10 25
-5 8 -10 11 -10 5z"/>
<path d="M3990 2888 c41 -45 50 -53 50 -45 0 2 -21 23 -47 47 l-48 45 45 -47z"/>
<path d="M3551 2884 c0 -11 3 -14 6 -6 3 7 2 16 -1 19 -3 4 -6 -2 -5 -13z"/>
<path d="M2566 2860 c4 -14 18 -61 30 -105 12 -44 23 -73 23 -65 1 21 -38 160
-50 179 -7 12 -8 9 -3 -9z"/>
<path d="M3562 2840 c0 -14 2 -19 5 -12 2 6 2 18 0 25 -3 6 -5 1 -5 -13z"/>
<path d="M3551 2800 c-1 -9 -15 -32 -32 -53 -25 -30 -27 -37 -13 -37 10 0 15
3 11 6 -3 4 5 22 19 40 14 18 24 39 21 46 -4 9 -6 9 -6 -2z"/>
<path d="M5345 2769 c-16 -10 -25 -19 -20 -19 6 0 20 7 32 15 25 17 25 18 48
-53 9 -29 19 -52 21 -49 6 5 -37 127 -44 126 -4 0 -20 -9 -37 -20z"/>
<path d="M5238 2733 c6 -2 18 -2 25 0 6 3 1 5 -13 5 -14 0 -19 -2 -12 -5z"/>
<path d="M3458 2723 c7 -3 16 -2 19 1 4 3 -2 6 -13 5 -11 0 -14 -3 -6 -6z"/>
<path d="M5173 2723 c9 -2 23 -2 30 0 6 3 -1 5 -18 5 -16 0 -22 -2 -12 -5z"/>
<path d="M5073 2713 c9 -2 25 -2 35 0 9 3 1 5 -18 5 -19 0 -27 -2 -17 -5z"/>
<path d="M3548 2703 c6 -2 18 -2 25 0 6 3 1 5 -13 5 -14 0 -19 -2 -12 -5z"/>
<path d="M4983 2703 c9 -2 25 -2 35 0 9 3 1 5 -18 5 -19 0 -27 -2 -17 -5z"/>
<path d="M4893 2693 c9 -2 23 -2 30 0 6 3 -1 5 -18 5 -16 0 -22 -2 -12 -5z"/>
<path d="M4813 2683 c9 -2 23 -2 30 0 6 3 -1 5 -18 5 -16 0 -22 -2 -12 -5z"/>
<path d="M4738 2673 c6 -2 18 -2 25 0 6 3 1 5 -13 5 -14 0 -19 -2 -12 -5z"/>
<path d="M699 2428 c-261 -132 -478 -244 -484 -249 -6 -6 -6 -9 0 -10 85 -7
869 -120 1035 -149 63 -12 135 -31 160 -43 42 -20 45 -25 48 -64 3 -36 -1 -44
-22 -59 -33 -21 -45 -19 -531 52 -203 30 -433 64 -510 75 -77 12 -141 22 -143
24 -1 1 14 19 34 39 20 20 34 40 30 43 -7 8 -148 -87 -153 -102 -2 -7 51 -19
129 -32 73 -12 294 -49 490 -82 397 -68 583 -89 641 -73 20 6 185 103 367 216
181 113 334 206 339 206 6 0 121 316 121 333 0 1 -17 3 -38 5 -20 1 -122 11
-227 22 -104 12 -323 34 -485 50 -162 16 -302 31 -311 34 -9 2 -230 -104 -490
-236z"/>
<path d="M2622 2650 c0 -14 2 -19 5 -12 2 6 2 18 0 25 -3 6 -5 1 -5 -13z"/>
<path d="M4678 2663 c6 -2 18 -2 25 0 6 3 1 5 -13 5 -14 0 -19 -2 -12 -5z"/>
<path d="M4628 2653 c7 -3 16 -2 19 1 4 3 -2 6 -13 5 -11 0 -14 -3 -6 -6z"/>
<path d="M3968 2633 c7 -3 16 -2 19 1 4 3 -2 6 -13 5 -11 0 -14 -3 -6 -6z"/>
<path d="M4018 2623 c7 -3 16 -2 19 1 4 3 -2 6 -13 5 -11 0 -14 -3 -6 -6z"/>
<path d="M2632 2600 c0 -14 4 -38 8 -55 7 -27 8 -27 8 -5 0 14 -4 39 -8 55 -7
27 -8 27 -8 5z"/>
<path d="M4495 2610 c-3 -6 1 -7 9 -4 18 7 21 14 7 14 -6 0 -13 -4 -16 -10z"/>
<path d="M4179 2575 c18 -8 36 -15 40 -15 13 1 -45 29 -59 29 -8 0 0 -6 19
-14z"/>
<path d="M4250 2546 c0 -3 9 -10 20 -16 11 -6 20 -8 20 -6 0 3 -9 10 -20 16
-11 6 -20 8 -20 6z"/>
<path d="M2652 2495 c-1 -11 3 -38 7 -60 7 -34 9 -35 9 -10 0 35 -15 101 -16
70z"/>
<path d="M2673 2345 c0 -27 2 -38 4 -22 2 15 2 37 0 50 -2 12 -4 0 -4 -28z"/>
<path d="M2682 2250 c0 -19 2 -27 5 -17 2 9 2 25 0 35 -3 9 -5 1 -5 -18z"/>
<path d="M2651 2107 c-14 -56 -31 -108 -40 -114 -8 -7 -10 -13 -4 -13 6 0 15
6 20 13 12 16 56 192 52 206 -2 5 -15 -36 -28 -92z"/>
<path d="M2568 1993 c7 -3 16 -2 19 1 4 3 -2 6 -13 5 -11 0 -14 -3 -6 -6z"/>
<path d="M346 794 c-169 -86 -171 -88 -76 -100 14 -2 127 -18 252 -35 199 -28
226 -34 215 -47 -6 -9 11 1 39 21 46 33 103 62 222 112 23 10 41 20 39 22 -2
1 -49 -16 -105 -38 l-102 -41 -176 25 c-97 14 -179 28 -181 31 -3 3 9 17 26
31 32 28 39 59 18 85 -10 13 -34 4 -171 -66z"/>
<path d="M834 634 c-18 -14 -18 -14 6 -3 31 14 36 19 24 19 -6 0 -19 -7 -30
-16z"/>
<path d="M3565 629 c-4 -6 -5 -12 -2 -15 2 -3 7 2 10 11 7 17 1 20 -8 4z"/>
<path d="M1200 515 c-7 -9 -11 -17 -9 -20 3 -2 10 5 17 15 14 24 10 26 -8 5z"/>
<path d="M1283 509 c22 -13 23 -44 1 -35 -13 5 -14 4 -6 -7 7 -8 9 -17 5 -20
-3 -4 -2 -7 3 -7 6 0 20 -10 33 -21 l23 -21 -30 -18 c-43 -26 -46 -37 -12 -42
22 -3 30 -1 31 11 0 10 4 6 10 -8 5 -13 7 -33 4 -45 -5 -15 -4 -17 3 -7 6 8
15 10 23 6 11 -6 12 -5 2 6 -24 25 -15 38 21 32 18 -3 36 -1 40 5 10 17 -21
33 -64 34 -27 0 -38 4 -32 10 6 6 2 28 -10 61 -22 58 -35 77 -52 77 -6 0 -3
-5 7 -11z"/>
<path d="M1244 489 c-3 -6 2 -18 12 -27 17 -16 17 -16 5 0 -7 9 -10 22 -6 28
3 5 4 10 1 10 -3 0 -8 -5 -12 -11z"/>
<path d="M1198 436 c5 -19 4 -20 -13 -6 -14 11 -13 7 5 -17 23 -32 40 -35 40
-7 0 20 27 18 39 -3 5 -10 12 -15 15 -13 9 10 -8 26 -50 46 l-41 20 5 -20z"/>
<path d="M1227 354 c-15 -14 -31 -23 -36 -20 -5 3 -14 -9 -20 -27 -9 -27 -9
-29 3 -15 7 10 15 16 18 13 2 -3 19 13 37 35 37 46 37 50 -2 14z"/>
<path d="M1309 283 c-13 -16 -12 -17 4 -4 16 13 21 21 13 21 -2 0 -10 -8 -17
-17z"/>
<path d="M1184 258 l-19 -23 23 19 c21 18 27 26 19 26 -2 0 -12 -10 -23 -22z"/>
<path d="M1315 250 c-10 -11 -16 -22 -14 -24 2 -2 12 7 22 20 22 29 17 32 -8
4z"/>
<path d="M3520 217 c0 -23 44 -67 67 -66 12 0 8 4 -10 11 -17 6 -35 23 -43 42
-8 19 -13 24 -14 13z"/>
<path d="M3688 153 c17 -2 47 -2 65 0 17 2 3 4 -33 4 -36 0 -50 -2 -32 -4z"/>
<path d="M3818 143 c6 -2 18 -2 25 0 6 3 1 5 -13 5 -14 0 -19 -2 -12 -5z"/>
<path d="M3888 133 c7 -3 16 -2 19 1 4 3 -2 6 -13 5 -11 0 -14 -3 -6 -6z"/>
<path d="M3938 123 c6 -2 18 -2 25 0 6 3 1 5 -13 5 -14 0 -19 -2 -12 -5z"/>
<path d="M4658 123 c7 -3 16 -2 19 1 4 3 -2 6 -13 5 -11 0 -14 -3 -6 -6z"/>
<path d="M3998 113 c6 -2 18 -2 25 0 6 3 1 5 -13 5 -14 0 -19 -2 -12 -5z"/>
<path d="M4083 103 c9 -2 23 -2 30 0 6 3 -1 5 -18 5 -16 0 -22 -2 -12 -5z"/>
<path d="M4263 93 c37 -2 97 -2 135 0 37 2 6 3 -68 3 -74 0 -105 -1 -67 -3z"/>
</g>
</svg>
