<?xml version="1.0" standalone="no"?>
<!DOCTYPE svg PUBLIC "-//W3C//DTD SVG 20010904//EN"
 "http://www.w3.org/TR/2001/REC-SVG-20010904/DTD/svg10.dtd">
<svg version="1.0" xmlns="http://www.w3.org/2000/svg"
 width="626.000000pt" height="503.000000pt" viewBox="0 0 626.000000 503.000000"
 preserveAspectRatio="xMidYMid meet">

<g transform="translate(0.000000,503.000000) scale(0.100000,-0.100000)"
fill="#4f46e5" stroke="none">
<path d="M3165 3509 c-66 -6 -185 -27 -185 -33 0 -1 20 -3 45 -3 25 0 45 4 45
9 0 4 7 8 15 8 8 0 15 -6 15 -12 0 -10 3 -9 9 1 6 9 36 15 90 18 70 4 81 2 81
-12 0 -9 7 -24 16 -32 13 -13 13 -17 2 -24 -9 -6 -4 -9 14 -9 15 0 30 -5 33
-10 5 -8 11 -7 21 1 12 10 18 8 30 -9 18 -26 36 -29 27 -6 -5 13 -2 15 15 9
16 -5 22 -2 22 9 0 9 6 16 13 17 6 0 2 4 -11 9 -15 7 -29 6 -41 -2 -15 -9 -22
-8 -36 5 -9 10 -22 14 -28 10 -8 -5 -8 -8 1 -11 17 -5 15 -22 -3 -22 -9 0 -19
8 -22 18 -4 9 -16 23 -26 31 -20 14 -20 15 3 23 32 12 166 -8 264 -39 191 -60
411 -204 457 -298 l20 -40 -21 28 c-12 15 -27 27 -33 27 -7 0 -18 9 -25 21 -7
12 -16 19 -18 16 -3 -2 9 -26 27 -51 41 -62 30 -71 -18 -15 -55 65 -143 149
-156 149 -7 0 -34 20 -62 45 -27 24 -57 45 -64 45 -12 0 -12 -3 -3 -12 7 -7
12 -16 12 -20 0 -11 -47 18 -82 51 -16 13 -28 21 -28 17 0 -4 -18 3 -40 15
-43 24 -61 22 -35 -5 15 -15 15 -16 -7 -16 -23 0 -23 0 5 -25 15 -14 27 -30
27 -34 0 -5 12 -17 28 -26 l27 -18 -24 27 c-14 14 -21 29 -17 33 5 5 35 -21
68 -57 33 -36 46 -47 29 -25 -38 49 -40 67 -3 34 26 -23 26 -23 -2 9 -19 20
-25 32 -15 32 20 -1 75 -48 66 -56 -12 -12 46 -33 60 -22 7 5 14 5 18 -2 3 -5
3 -10 -1 -10 -11 0 17 -30 50 -52 l31 -22 -25 29 c-14 15 -18 25 -10 21 8 -3
22 -9 32 -12 9 -3 18 -14 21 -25 4 -14 10 -17 24 -12 16 6 16 5 4 -11 -11 -13
-11 -20 -3 -28 9 -9 12 -9 12 1 0 8 23 -7 50 -33 30 -29 55 -44 63 -40 6 4 9
4 5 -1 -7 -8 29 -78 64 -124 24 -31 23 -49 -1 -27 -11 10 -26 16 -33 13 -9 -4
-8 -6 3 -6 9 -1 22 -15 30 -32 7 -18 25 -46 41 -63 15 -17 28 -34 28 -38 0 -5
6 -8 13 -8 8 0 14 -6 14 -12 0 -7 4 -21 8 -30 4 -11 3 -18 -4 -18 -6 0 -11 5
-11 12 0 6 -2 9 -5 6 -7 -7 44 -84 53 -80 3 2 9 -6 14 -17 4 -12 13 -21 20
-21 9 0 9 3 0 12 -18 18 -14 32 5 17 15 -13 16 -11 9 16 -5 17 -9 35 -10 40
-1 6 -8 21 -16 35 -18 31 -41 90 -44 112 -1 9 -13 31 -27 50 -14 18 -42 61
-63 95 -21 34 -44 64 -52 67 -8 3 -14 11 -14 18 0 9 3 9 11 1 6 -6 19 -9 28
-6 14 4 14 3 1 -6 -13 -9 -12 -12 7 -17 25 -7 75 -67 100 -121 10 -21 20 -40
23 -43 5 -5 10 -22 14 -48 1 -8 8 -17 15 -21 19 -12 71 -199 77 -276 3 -38 1
-92 -4 -120 l-8 -50 -18 33 c-9 19 -20 32 -22 29 -3 -3 4 -20 15 -38 22 -36
20 -49 -11 -49 -18 0 -19 2 -7 18 13 15 12 16 -3 3 -23 -18 -23 -20 10 -32 25
-10 26 -12 10 -23 -10 -7 -18 -18 -18 -24 0 -16 -37 -24 -59 -13 -11 6 -26 11
-33 10 -7 0 -2 -6 12 -12 14 -6 27 -14 30 -18 3 -4 25 2 50 12 25 10 36 18 26
18 -16 1 -17 4 -8 13 9 9 15 9 25 -1 10 -10 7 -17 -15 -35 -16 -12 -28 -27
-28 -33 0 -7 -10 -19 -22 -28 -13 -8 -23 -21 -23 -27 0 -6 -6 -13 -14 -16 -8
-3 -11 0 -7 7 4 6 3 11 -3 11 -5 0 -13 -4 -16 -10 -3 -5 -1 -10 6 -10 8 0 7
-5 -2 -17 -12 -15 -12 -16 1 -8 8 4 25 17 37 28 13 11 26 17 30 14 3 -4 -2
-14 -13 -22 -15 -11 -16 -15 -4 -16 8 -1 19 -1 24 0 5 1 4 -4 -2 -12 -7 -8 -9
-17 -5 -21 4 -3 -3 -13 -15 -21 -13 -10 -19 -23 -17 -35 2 -11 0 -18 -4 -15
-5 2 -14 -2 -21 -10 -11 -13 -10 -14 5 -9 16 7 16 6 1 -18 -9 -13 -13 -28 -9
-33 5 -4 2 -5 -5 -1 -8 5 -30 -10 -60 -41 -26 -26 -38 -40 -26 -30 34 28 37
20 8 -20 -19 -26 -21 -31 -7 -18 12 11 30 35 40 54 17 31 60 55 50 28 -3 -7
-10 -11 -16 -9 -6 1 -11 -5 -11 -14 0 -8 -37 -52 -81 -96 -76 -75 -84 -80
-115 -75 -20 3 -36 1 -40 -5 -5 -7 -1 -9 9 -5 22 8 22 -1 0 -25 -9 -10 -13
-18 -10 -18 3 0 15 10 27 22 21 23 41 18 22 -5 -7 -8 -10 -16 -7 -19 5 -5 -50
-58 -60 -58 -3 0 -2 12 1 27 6 21 4 25 -9 20 -26 -10 -29 6 -5 25 15 12 17 16
6 12 -10 -3 -18 -1 -18 5 0 6 -7 8 -15 5 -8 -4 -12 -11 -8 -18 14 -21 13 -46
-1 -46 -14 0 -30 -27 -27 -46 2 -18 -43 -44 -60 -33 -24 15 -34 10 -13 -7 18
-15 18 -15 -10 -9 -26 5 -27 4 -13 -10 17 -17 47 -20 47 -5 0 5 7 7 15 4 8 -4
15 -10 15 -15 0 -4 -7 -6 -15 -3 -11 5 -13 2 -9 -10 7 -19 -16 -22 -33 -5 -7
7 -32 13 -57 14 -45 2 -45 1 -24 -17 12 -10 27 -18 34 -18 17 0 27 -17 15 -24
-5 -4 -15 0 -23 7 -22 22 -97 61 -105 54 -3 -4 1 -7 10 -7 21 0 21 -7 2 -26
-8 -9 -20 -12 -26 -8 -8 4 -7 9 2 15 17 11 1 10 -25 0 -17 -7 -13 -12 29 -41
46 -31 47 -34 26 -42 -12 -4 -30 -4 -39 1 -9 4 -24 6 -32 4 -12 -4 -12 -3 -1
5 11 8 11 10 0 14 -8 3 -11 9 -7 13 4 4 21 -3 37 -15 17 -12 31 -18 31 -13 0
4 -11 16 -25 25 -20 15 -50 18 -96 9 -3 0 -5 -11 -5 -23 1 -13 -4 -22 -11 -20
-7 1 -13 -2 -13 -8 0 -5 5 -10 10 -10 6 0 10 -4 10 -9 0 -12 -44 -22 -48 -11
-2 6 -9 7 -14 4 -6 -4 -8 -2 -4 4 3 6 2 13 -4 17 -9 6 -15 -8 -11 -29 3 -12
-242 0 -350 18 -48 8 -108 24 -134 35 -26 12 -55 21 -64 20 -10 0 -12 -2 -3
-6 6 -2 10 -8 7 -12 -2 -5 -37 -2 -77 6 -63 12 -243 20 -273 12 -6 -2 -34 1
-62 5 -63 9 -133 -1 -133 -19 0 -8 -17 -15 -42 -17 -41 -5 -45 -3 -95 50 -62
65 -71 110 -13 59 20 -18 35 -35 33 -38 -1 -4 4 -12 12 -19 8 -7 12 -16 9 -21
-8 -14 6 -10 22 6 23 23 10 70 -30 115 -38 42 -42 50 -27 50 5 0 19 -16 31
-35 12 -19 27 -35 33 -35 6 0 0 11 -12 24 -12 13 -21 27 -19 32 2 5 -5 20 -15
34 -9 13 -17 19 -17 12 0 -6 -6 -11 -12 -10 -7 2 -12 -5 -12 -15 2 -14 -1 -15
-12 -6 -18 15 -9 22 108 80 48 23 86 44 84 47 -2 2 -14 -2 -26 -8 -15 -8 -20
-8 -16 -1 12 18 197 103 213 97 8 -3 12 -2 9 3 -6 10 24 25 32 16 3 -3 -1 -5
-8 -5 -7 0 -11 -3 -7 -6 3 -3 37 11 76 31 47 25 76 35 90 30 12 -4 21 -2 21 4
0 7 35 11 97 11 53 0 94 2 92 4 -2 2 -44 6 -92 10 -49 3 -93 8 -98 12 -6 3
-18 -1 -27 -9 -13 -11 -135 -67 -148 -67 -1 0 -7 14 -14 30 -7 17 -16 30 -20
30 -5 0 -23 26 -41 58 -18 31 -41 68 -51 81 l-18 24 0 -27 c0 -32 32 -93 58
-112 22 -15 34 -71 18 -78 -6 -2 0 -5 14 -5 33 -1 16 -14 -51 -39 -31 -11
-100 -44 -154 -71 -97 -51 -122 -60 -110 -41 3 6 0 10 -8 10 -8 0 -24 20 -36
45 -12 25 -26 45 -32 45 -5 0 -8 4 -4 9 3 5 -7 31 -23 58 -16 26 -27 54 -24
61 2 6 -1 12 -7 12 -28 0 -5 21 59 54 38 20 75 46 81 57 10 19 9 20 -10 9 -20
-10 -25 -7 -22 13 1 9 -50 56 -62 57 -5 0 6 -12 23 -26 42 -36 30 -42 -17 -8
-34 25 -34 23 7 -13 42 -38 43 -41 22 -47 -12 -4 -26 -5 -32 -1 -5 3 -7 0 -4
-8 7 -19 -70 -49 -85 -34 -6 6 -11 16 -11 22 0 6 -23 33 -50 60 -28 27 -50 44
-50 38 0 -7 5 -15 10 -18 6 -3 10 -11 10 -17 0 -6 -5 -7 -13 -2 -7 5 -5 2 6
-6 10 -8 35 -30 55 -47 47 -41 21 -43 -32 -3 -21 16 -42 27 -47 24 -4 -2 -13
13 -20 35 -10 33 -9 42 3 55 9 8 19 12 24 8 5 -4 2 1 -5 10 -19 26 9 60 145
174 111 93 179 166 210 226 17 33 84 228 84 243 -1 5 -7 -5 -16 -24 -8 -19
-17 -31 -21 -28 -9 10 83 194 132 263 72 100 147 177 157 162 7 -10 8 -8 6 5
-2 10 -7 19 -12 20 -16 3 -159 -166 -203 -241 -63 -106 -133 -288 -133 -345 0
-36 -93 -159 -163 -216 -135 -108 -162 -134 -190 -177 -15 -24 -32 -44 -38
-44 -6 0 -58 -28 -115 -62 -79 -49 -106 -70 -114 -93 -7 -19 -28 -40 -55 -57
-26 -16 -50 -39 -56 -55 -6 -15 -17 -35 -25 -44 -14 -15 -13 -17 2 -15 11 0
20 -7 22 -18 3 -15 0 -17 -14 -11 -37 15 -68 10 -93 -15 -16 -16 -26 -20 -29
-12 -2 7 -11 12 -20 11 -11 0 -12 -2 -4 -6 6 -2 12 -11 12 -19 0 -19 39 -14
62 9 24 23 42 23 30 0 -17 -32 -5 -116 27 -196 33 -82 38 -107 20 -107 -6 0
-8 -8 -4 -19 5 -15 2 -18 -14 -14 -10 3 -28 13 -39 23 -20 19 -20 18 -18 -30
1 -34 6 -52 18 -59 15 -10 16 -8 8 14 -5 14 -8 25 -6 25 1 0 24 -34 50 -75 52
-82 68 -98 36 -35 -16 32 -17 40 -6 40 8 0 16 -7 20 -15 3 -8 12 -15 20 -15 8
0 20 -8 25 -18 6 -10 11 -12 11 -4 0 7 5 10 12 6 7 -4 8 -3 4 5 -4 6 -12 9
-17 6 -5 -4 -9 -2 -9 4 0 26 25 20 58 -12 41 -41 38 -57 -5 -32 -24 15 -23 13
7 -14 30 -26 32 -30 13 -28 -12 2 -31 14 -42 28 -14 16 -19 18 -15 7 4 -11 1
-18 -6 -18 -6 0 -9 -4 -6 -8 3 -5 -3 -9 -12 -9 -17 0 -92 71 -92 88 0 5 -6 8
-12 7 -7 -2 -12 5 -12 14 1 10 -2 15 -7 12 -5 -3 -12 1 -15 10 -3 8 -11 13
-18 10 -6 -2 -23 14 -36 37 -14 22 -37 53 -51 69 -24 26 -68 154 -70 206 -1
35 -42 -69 -44 -116 -2 -25 -6 -63 -10 -84 -6 -28 -5 -37 4 -32 6 4 11 1 11
-8 0 -16 34 -80 58 -109 11 -13 13 -20 5 -28 -8 -8 -17 0 -32 30 -24 46 -36
55 -20 14 18 -48 42 -81 68 -94 14 -7 50 -30 79 -51 28 -21 52 -36 52 -32 0 4
6 1 14 -5 7 -6 40 -14 73 -17 48 -5 65 -3 86 11 30 19 35 15 11 -9 -14 -15
-14 -16 5 -16 12 0 21 6 21 14 0 8 16 16 40 20 23 4 38 11 35 16 -4 7 -13 7
-25 0 -26 -14 -56 -12 -69 4 -10 12 -5 14 34 14 25 -1 57 5 70 12 27 14 49 5
25 -10 -13 -8 -12 -10 3 -10 9 0 17 5 17 10 0 6 9 10 19 10 24 0 36 16 19 24
-7 3 -1 4 14 1 20 -4 31 0 41 16 12 17 19 19 35 10 12 -7 31 -7 51 -1 17 5 29
5 26 0 -2 -4 5 -10 18 -14 38 -10 43 -6 17 16 l-25 21 28 -5 c15 -3 30 -1 33
3 5 8 27 6 78 -8 12 -3 16 -1 12 6 -10 16 24 14 56 -3 15 -8 36 -12 48 -9 11
3 27 0 35 -7 9 -7 18 -10 22 -7 3 4 -2 9 -11 13 -9 3 -14 10 -11 14 3 4 -3 11
-12 14 -15 6 -15 8 -3 17 11 8 10 9 -7 4 -15 -4 -23 -2 -23 6 0 8 13 10 47 5
55 -7 60 -11 44 -30 -10 -12 -4 -15 43 -21 30 -4 71 -5 93 -3 21 3 30 3 20 1
-29 -7 6 -33 45 -33 18 0 46 -7 61 -15 16 -8 53 -17 82 -20 30 -3 66 -10 80
-15 34 -13 58 -13 50 0 -9 15 20 12 80 -9 30 -11 55 -16 55 -11 0 5 -11 12
-25 17 -16 5 18 7 92 7 65 -1 125 2 133 7 8 5 11 9 5 9 -146 10 -268 31 -254
44 2 3 24 0 49 -4 25 -5 68 -9 97 -10 28 0 54 -3 56 -7 3 -5 41 -6 85 -3 47 3
78 1 74 -4 -3 -6 39 -6 104 -2 143 10 185 8 198 -9 13 -17 69 -7 120 22 20 11
30 12 35 4 5 -7 28 -3 75 14 37 13 71 24 74 23 4 -1 23 5 42 14 19 8 47 18 63
22 15 3 27 10 27 15 0 5 14 14 30 21 17 7 30 16 30 21 0 5 -14 0 -32 -11 -31
-19 -48 -18 -48 2 0 5 6 8 14 5 8 -3 22 1 33 9 16 14 16 14 -7 3 -22 -11 -24
-11 -12 4 7 8 21 15 30 15 9 0 31 5 47 12 40 17 56 20 49 9 -3 -5 -8 -8 -12
-6 -4 2 -18 -8 -32 -21 -20 -20 -21 -23 -5 -15 11 6 26 8 34 5 8 -2 11 0 8 6
-4 5 3 12 15 15 12 4 19 9 15 13 -10 11 33 54 54 54 18 0 89 38 89 47 0 2 -10
2 -22 -2 -22 -6 -22 -6 -4 9 22 17 40 21 32 7 -4 -5 -1 -11 6 -13 6 -2 -10
-16 -35 -31 -26 -16 -47 -30 -47 -32 0 -6 49 15 79 34 20 13 23 13 19 1 -2 -8
-27 -23 -55 -35 -27 -11 -60 -27 -74 -36 -40 -27 -14 -33 38 -8 61 29 155 90
148 97 -3 3 16 27 41 54 27 29 42 53 38 61 -5 9 -4 9 6 0 11 -10 8 -19 -15
-48 -15 -20 -34 -39 -42 -42 -11 -4 -12 -8 -2 -13 7 -5 18 -3 25 3 54 48 70
51 28 5 -16 -18 -20 -25 -8 -15 11 9 25 17 31 17 5 0 29 27 52 60 32 45 40 64
32 74 -6 7 -7 17 -2 22 5 5 11 22 15 37 11 45 -15 29 -33 -20 -8 -24 -24 -46
-38 -52 -20 -9 -22 -8 -14 7 6 9 13 31 17 47 10 39 11 45 14 48 9 11 6 38 -5
45 -8 4 -18 18 -24 32 -9 24 -10 23 -16 -17 -4 -24 -12 -43 -16 -43 -5 0 -7
10 -4 22 3 13 7 33 8 46 0 12 7 22 14 22 8 0 16 7 19 15 5 11 10 13 19 5 14
-12 14 12 1 42 -5 10 -9 38 -10 63 -1 48 -3 50 -25 36 -12 -8 -12 -12 -2 -25
7 -8 11 -20 9 -26 -2 -7 -19 10 -38 37 -36 49 -82 95 -89 87 -3 -2 5 -14 17
-27 12 -13 22 -29 22 -35 0 -7 4 -11 9 -10 11 4 73 -73 66 -81 -4 -3 -10 1
-15 9 -6 8 -10 10 -10 4 0 -16 27 -37 38 -30 5 3 7 -6 4 -19 -7 -37 -16 -38
-53 -6 -18 16 -37 27 -41 25 -4 -3 -8 7 -8 21 0 15 4 24 10 20 6 -3 10 -13 10
-20 0 -8 10 -19 21 -26 17 -8 20 -8 14 1 -4 7 -9 20 -10 29 -4 38 -18 69 -29
65 -6 -2 -25 10 -42 28 -33 35 -49 68 -34 68 6 0 10 9 10 20 0 10 8 24 18 29
10 6 12 11 4 11 -9 0 -11 12 -7 48 4 26 7 61 9 77 1 20 7 29 17 27 10 -2 9 2
-3 11 -12 10 -17 27 -17 58 3 168 -65 399 -164 556 -214 338 -617 538 -1012
502z m1029 -689 c7 -24 6 -24 -8 -6 -9 11 -16 27 -16 35 0 21 16 2 24 -29z
m36 -81 c0 -5 4 -7 10 -4 6 3 7 -1 4 -10 -5 -12 -9 -13 -20 -4 -16 13 -18 29
-4 29 6 0 10 -5 10 -11z m-20 -20 c0 -6 -4 -7 -10 -4 -5 3 -10 11 -10 16 0 6
5 7 10 4 6 -3 10 -11 10 -16z m100 -445 c0 -26 -34 -144 -41 -144 -6 0 -7 5
-4 10 4 6 2 17 -4 24 -8 10 -7 17 4 26 8 7 15 18 15 24 0 6 -4 4 -10 -4 -5 -8
-12 -12 -15 -8 -3 3 1 12 9 21 8 8 12 17 9 21 -7 7 16 36 28 36 5 0 9 -2 9 -6z
m-2490 -104 c0 -5 -6 -10 -12 -10 -7 0 -2 -7 10 -16 12 -8 22 -23 22 -33 0 -9
4 -21 9 -26 5 -6 26 -57 46 -115 64 -179 192 -416 271 -501 l24 -25 -22 -21
c-35 -32 -63 -43 -106 -43 -35 0 -45 6 -81 48 -22 26 -40 44 -41 41 0 -6 13
-22 67 -82 13 -16 22 -32 18 -35 -3 -4 -10 0 -15 8 -13 21 -31 20 -56 -2 -20
-18 -22 -18 -45 1 -24 20 -24 20 -2 21 12 0 23 5 25 12 3 7 9 8 19 3 34 -22
36 -10 4 28 -40 47 -42 52 -16 54 11 1 35 -16 56 -38 20 -22 40 -38 43 -35 3
3 -7 15 -21 27 -34 26 -35 42 -2 29 14 -5 25 -6 26 -2 0 4 2 21 5 39 3 24 -1
35 -14 41 -32 17 -44 3 -22 -25 11 -14 20 -30 20 -36 0 -6 -7 -2 -15 9 -11 14
-14 15 -15 4 0 -12 -2 -12 -9 -2 -4 8 -10 12 -12 11 -15 -12 -115 104 -104
121 3 5 1 10 -5 10 -6 0 -25 23 -42 50 -31 50 -49 69 -28 29 7 -11 9 -23 7
-26 -7 -6 -51 75 -53 97 -1 8 -7 28 -13 43 -15 38 -13 46 4 23 10 -13 15 -15
15 -6 0 7 3 11 6 7 4 -3 13 0 20 8 17 17 18 29 2 19 -8 -5 -9 -2 -5 10 5 11 3
15 -5 10 -7 -5 -9 1 -4 19 5 20 2 27 -14 32 -11 3 -20 11 -20 16 0 6 5 7 11 4
7 -5 9 3 7 21 -4 33 -28 45 -28 14 0 -17 -4 -21 -20 -17 -20 5 -21 -1 -3 -65
7 -28 -5 -21 -22 13 -22 43 -30 30 -10 -17 l16 -38 -23 20 c-13 12 -31 24 -40
27 -10 4 -18 15 -18 26 0 11 -5 21 -12 23 -15 5 58 78 78 78 8 0 12 5 9 10 -4
6 6 10 22 10 20 0 24 3 14 9 -20 13 -6 45 17 36 27 -12 45 -11 49 2 2 6 -4 13
-14 16 -10 2 -5 3 12 0 22 -2 27 -1 18 8 -6 6 -9 18 -6 25 6 16 23 19 23 4z
m90 -105 c7 -9 10 -18 7 -22 -8 -7 -37 15 -37 28 0 14 16 11 30 -6z m65 -59
c0 -9 19 -34 43 -56 24 -23 40 -45 37 -50 -4 -6 1 -13 9 -16 9 -3 16 -11 16
-16 0 -6 -16 2 -36 17 -19 15 -38 25 -40 22 -3 -3 20 -24 50 -47 31 -23 56
-47 56 -52 0 -10 -36 7 -45 22 -3 5 -20 19 -38 30 -23 16 -20 10 13 -19 25
-23 39 -41 31 -41 -11 0 -11 -4 2 -18 24 -27 21 -36 -4 -13 -12 11 -27 17 -34
15 -7 -3 -15 2 -19 12 -5 13 -4 14 7 6 7 -6 18 -7 25 -3 10 6 5 13 -15 27 -15
10 -34 18 -42 19 -8 0 -17 7 -19 15 -4 12 -2 13 9 3 11 -9 14 -7 15 11 1 15
-8 28 -29 39 -16 10 -27 20 -23 24 3 3 14 -1 24 -10 21 -20 37 -22 26 -5 -5 8
-1 9 12 5 20 -7 -25 36 -62 60 -10 7 -14 12 -9 10 6 -1 10 3 10 8 0 6 -4 11
-10 11 -5 1 -14 2 -20 3 -5 1 -4 5 4 10 19 12 56 -3 56 -23z m2351 -2 c-3 -8
-10 -12 -16 -9 -6 4 -8 11 -5 16 4 5 0 9 -7 10 -7 0 -4 4 7 8 22 9 30 -1 21
-25z m-41 6 c3 -5 1 -10 -4 -10 -6 0 -11 5 -11 10 0 6 2 10 4 10 3 0 8 -4 11
-10z m-2725 -20 c0 -5 -4 -10 -9 -10 -5 0 -18 -3 -28 -6 -16 -5 -16 -4 1 10
23 18 36 20 36 6z m2790 -4 c0 -8 3 -23 7 -33 6 -16 5 -16 -10 -4 -18 15 -23
51 -7 51 6 0 10 -6 10 -14z m-2409 -23 c13 -16 12 -17 -3 -4 -10 7 -18 15 -18
17 0 8 8 3 21 -13z m2446 -15 c-3 -8 -6 -5 -6 6 -1 11 2 17 5 13 3 -3 4 -12 1
-19z m-2791 4 c-3 -5 2 -21 9 -36 13 -25 13 -27 0 -22 -17 6 -21 -9 -5 -19 6
-3 10 -17 10 -31 0 -13 -4 -24 -10 -24 -5 0 -10 5 -10 10 0 6 -6 10 -13 10 -8
0 -19 10 -25 23 -9 18 -10 16 -5 -18 3 -30 2 -36 -6 -25 -6 8 -11 23 -11 32 0
9 -4 20 -10 23 -5 3 -8 0 -6 -7 3 -7 7 -26 10 -43 l5 -30 -14 30 c-28 60 -16
104 30 109 16 2 31 8 33 15 2 6 8 11 13 11 6 0 8 -4 5 -8z m2714 -27 c0 -14 6
-25 13 -26 10 0 10 -2 0 -6 -7 -2 -13 -9 -13 -14 0 -6 5 -7 10 -4 6 3 10 2 10
-3 0 -18 -12 -20 -31 -4 -19 17 -24 38 -13 66 9 25 24 19 24 -9z m97 -34 c-25
-60 -38 -47 -15 16 7 20 15 28 19 21 4 -6 2 -23 -4 -37z m-2667 29 c0 -5 -2
-10 -4 -10 -3 0 -8 5 -11 10 -3 6 -1 10 4 10 6 0 11 -4 11 -10z m2426 -17
c-20 -38 -45 -70 -46 -58 0 11 48 85 56 85 2 0 -2 -12 -10 -27z m-2413 -23 c3
-11 1 -18 -4 -14 -5 3 -9 12 -9 20 0 20 7 17 13 -6z m2486 -60 c1 -13 0 -13
-9 0 -5 8 -9 24 -9 35 l0 20 9 -20 c5 -11 9 -27 9 -35z m-2759 15 c0 -8 -7
-15 -15 -15 -8 0 -15 -7 -15 -17 0 -9 -3 -14 -6 -10 -4 3 -4 18 0 32 7 27 36
35 36 10z m2820 -20 c0 -8 -4 -17 -10 -20 -6 -4 -10 5 -10 20 0 15 4 24 10 20
6 -3 10 -12 10 -20z m-2548 -61 c21 -38 45 -82 53 -99 8 -16 26 -43 40 -60 24
-27 25 -28 14 -5 -10 23 -10 24 5 10 14 -14 13 -61 -3 -60 -9 1 -84 104 -82
113 1 4 -7 16 -18 25 -29 25 -77 114 -73 135 6 30 24 14 64 -59z m2649 39
c-10 -17 -10 -16 -11 3 0 23 13 41 18 25 2 -6 -1 -18 -7 -28z m36 -38 c-18
-19 -42 -50 -52 -69 -23 -42 -62 -65 -60 -35 1 11 7 25 13 31 7 7 12 17 12 23
0 6 11 22 25 35 31 29 33 15 3 -17 -12 -13 -19 -25 -16 -28 3 -3 27 25 54 62
34 47 50 63 52 51 2 -10 -12 -33 -31 -53z m-2942 25 c8 -16 15 -43 15 -60 0
-16 4 -30 8 -30 10 0 35 -50 28 -57 -11 -11 -76 133 -76 169 0 16 10 8 25 -22z
m190 -7 c29 -57 30 -59 10 -43 -16 12 -14 6 6 -30 14 -25 25 -52 24 -60 -1 -8
-3 -22 -4 -30 -1 -18 -30 22 -67 93 -24 47 -25 95 -2 81 7 -5 9 -1 5 9 -12 33
10 17 28 -20z m2695 -5 c0 -10 -5 -18 -11 -18 -6 0 -9 7 -6 15 4 8 2 17 -4 20
-5 4 -6 11 -3 17 8 13 24 -10 24 -34z m-2260 7 c7 -8 8 -15 2 -15 -5 0 -15 7
-22 15 -7 8 -8 15 -2 15 5 0 15 -7 22 -15z m2120 6 c0 -6 -4 -13 -10 -16 -5
-3 -10 1 -10 9 0 9 5 16 10 16 6 0 10 -4 10 -9z m-2180 -52 c0 -6 6 -7 13 -3
9 5 9 4 -1 -7 -10 -11 -17 -8 -42 20 -38 41 -38 48 0 21 17 -12 30 -26 30 -31z
m1995 32 c-3 -6 -11 -11 -17 -11 -6 0 -6 6 2 15 14 17 26 13 15 -4z m225 -7
c0 -8 -4 -14 -10 -14 -5 0 -10 9 -10 21 0 11 5 17 10 14 6 -3 10 -13 10 -21z
m50 8 c0 -10 -14 -31 -32 -48 l-31 -29 22 32 c12 17 21 35 20 40 -3 15 1 23
11 23 6 0 10 -8 10 -18z m-2674 -90 c25 -39 32 -57 25 -66 -6 -7 -8 -16 -4
-19 3 -4 1 -7 -4 -7 -6 0 -24 15 -39 33 l-27 32 6 -37 c3 -21 2 -38 -2 -38
-10 0 -55 93 -65 133 -9 38 1 34 21 -10 10 -20 24 -38 31 -41 9 -3 7 9 -8 37
-13 27 -18 50 -14 63 6 21 7 21 26 -3 10 -13 35 -48 54 -77z m2544 38 c-13
-19 -17 -30 -9 -30 8 0 5 -7 -6 -20 -14 -15 -15 -20 -4 -20 11 0 11 -2 1 -8
-9 -6 -10 -16 -3 -34 8 -21 6 -29 -14 -48 -12 -12 -29 -22 -36 -24 -8 -1 -21
-6 -29 -11 -12 -7 -13 -6 -3 7 7 8 10 18 6 21 -3 4 -1 7 5 7 7 0 12 -5 12 -11
0 -5 5 -7 10 -4 6 4 8 10 5 15 -3 5 3 15 15 22 11 7 20 19 20 27 0 9 -4 10
-12 4 -14 -11 -48 -13 -48 -3 0 9 23 30 33 30 5 0 3 -8 -4 -17 -12 -16 -12
-17 2 -6 9 7 15 23 14 35 -1 13 11 40 27 61 35 44 48 50 18 7z m-2005 10 c-3
-5 -11 -10 -16 -10 -6 0 -7 5 -4 10 3 6 11 10 16 10 6 0 7 -4 4 -10z m-356
-85 c0 -5 -6 -1 -14 9 -8 11 -15 24 -15 30 0 5 7 1 15 -10 8 -10 14 -23 14
-29z m232 23 c11 -21 11 -22 -4 -9 -10 7 -17 17 -17 22 0 15 9 10 21 -13z
m2419 2 c-6 -11 -16 -20 -22 -20 -6 0 -3 9 7 20 10 11 20 20 22 20 2 0 -1 -9
-7 -20z m-3221 -55 c20 -65 53 -135 62 -129 4 2 11 -1 15 -7 4 -8 3 -9 -4 -5
-24 14 -10 -11 48 -91 32 -46 55 -83 50 -83 -27 0 -166 220 -186 293 -24 89
-12 106 15 22z m3129 43 c-4 -12 -68 -52 -68 -42 0 8 52 54 62 54 5 0 8 -5 6
-12z m-2888 -55 c0 -8 7 -22 16 -31 12 -12 13 -17 4 -20 -16 -6 -28 8 -34 40
-2 14 -9 37 -16 50 l-11 23 20 -24 c12 -13 21 -30 21 -38z m2715 22 c-38 -31
-49 -21 -11 11 15 14 31 22 35 19 3 -4 -7 -17 -24 -30z m-322 11 c4 -10 1 -13
-7 -10 -8 3 -26 -6 -41 -20 -24 -22 -63 -27 -50 -5 3 4 13 5 22 2 10 -4 14 -2
9 5 -3 6 3 13 14 17 11 3 20 11 20 16 0 15 27 10 33 -5z m-2157 -16 c0 -12 -4
-16 -9 -11 -5 5 -6 14 -3 20 10 15 12 14 12 -9z m-176 -15 c0 -25 -16 -24 -18
1 -1 15 2 22 8 19 6 -3 10 -12 10 -20z m278 -54 c26 -35 16 -41 -19 -12 -21
17 -26 18 -40 5 -14 -13 -18 -12 -30 2 -10 12 -10 18 -3 21 6 2 10 17 8 34
l-4 30 33 -25 c18 -14 43 -39 55 -55z m-138 17 c17 2 29 -4 38 -19 18 -29 10
-33 -35 -18 -21 7 -40 12 -43 12 -3 -1 -6 7 -6 17 0 10 5 16 11 12 5 -3 21 -5
35 -4z m2040 -28 c8 -5 12 -12 9 -15 -8 -8 -39 5 -39 16 0 11 11 11 30 -1z
m-102 -25 c-3 -3 -9 2 -12 12 -6 14 -5 15 5 6 7 -7 10 -15 7 -18z m-1418 5 c0
-5 -2 -10 -4 -10 -3 0 -8 5 -11 10 -3 6 -1 10 4 10 6 0 11 -4 11 -10z m1811
-3 c-6 -8 -30 -19 -53 -26 -29 -9 -37 -15 -28 -21 10 -6 6 -11 -15 -16 -17 -4
-36 -14 -44 -22 -13 -13 -12 -14 9 -7 51 15 4 -15 -54 -35 -39 -13 -64 -17
-75 -11 -14 8 -12 11 11 20 15 6 34 8 42 5 8 -3 23 -1 33 5 16 9 15 10 -7 11
l-25 1 25 14 25 15 -30 -6 -30 -6 30 20 c22 14 35 17 48 10 14 -7 24 -5 38 8
19 17 85 52 103 53 5 1 3 -5 -3 -12z m-394 -19 c16 -4 20 -2 16 9 -5 13 -3 14
18 2 l24 -12 -29 -10 c-30 -10 -80 8 -69 26 3 6 8 6 12 0 3 -6 16 -12 28 -15z
m-1922 2 c3 -5 1 -10 -4 -10 -6 0 -11 5 -11 10 0 6 2 10 4 10 3 0 8 -4 11 -10z
m2345 5 c0 -2 -10 -9 -22 -15 -22 -11 -22 -10 -4 4 21 17 26 19 26 11z m-552
-26 c-2 -3 3 -13 11 -23 12 -14 12 -16 -4 -10 -13 5 -16 4 -11 -4 4 -7 3 -12
-2 -12 -5 0 -9 14 -10 31 0 16 4 29 9 27 6 -2 9 -6 7 -9z m-798 -10 c38 -7 67
-16 64 -20 -4 -8 -50 -5 -129 6 -22 4 -26 2 -15 -5 21 -13 3 -12 -37 2 -76 28
-8 37 117 17z m-905 -49 c14 0 27 -25 18 -34 -12 -11 -22 -6 -57 32 -44 46
-47 63 -5 28 17 -14 36 -26 44 -26z m35 43 c0 -11 44 -30 58 -25 7 2 10 8 6
13 -10 17 3 9 22 -13 10 -12 14 -18 8 -15 -7 4 -14 1 -17 -7 -7 -19 -53 -17
-70 3 -19 22 -28 51 -17 51 6 0 10 -3 10 -7z m-276 -32 c17 -18 17 -20 -2 -30
-13 -7 -19 -7 -19 2 0 7 -4 20 -8 30 -10 23 8 22 29 -2z m2241 10 c-6 -5 -23
-12 -40 -16 l-30 -6 30 15 c35 17 53 20 40 7z m-1245 -11 l25 -8 -25 -1 c-14
0 -32 4 -40 9 -13 9 -13 10 0 9 8 -1 26 -5 40 -9z m120 0 c0 -5 -2 -10 -4 -10
-3 0 -8 5 -11 10 -3 6 -1 10 4 10 6 0 11 -4 11 -10z m-450 -4 c0 -11 -19 -15
-25 -6 -3 5 1 10 9 10 9 0 16 -2 16 -4z m170 -6 c-12 -8 -12 -10 -1 -10 8 0
12 -3 8 -6 -3 -4 -14 -3 -24 0 -15 6 -15 8 -3 16 8 6 20 10 25 10 6 0 3 -5 -5
-10z m-635 -30 c8 -13 -11 -13 -36 1 -11 5 -17 14 -14 20 7 10 39 -4 50 -21z
m597 6 c10 -16 6 -16 -37 -5 -28 8 -35 13 -24 20 16 10 51 2 61 -15z m428 14
c24 -8 24 -8 -5 -9 -16 0 -37 4 -45 9 -12 8 -11 10 5 9 11 -1 31 -5 45 -9z
m-1165 -10 c3 -5 2 -10 -4 -10 -5 0 -13 5 -16 10 -3 6 -2 10 4 10 5 0 13 -4
16 -10z m880 -15 c34 -4 35 -5 35 -13 0 -4 -19 -8 -42 -8 -31 -1 -37 1 -23 7
16 6 17 8 3 8 -9 1 -20 6 -24 13 -5 8 -2 9 12 4 10 -5 28 -9 39 -11z m172 9
c-3 -3 -12 -4 -19 -1 -8 3 -5 6 6 6 11 1 17 -2 13 -5z m950 0 c-3 -3 -12 -4
-19 -1 -8 3 -5 6 6 6 11 1 17 -2 13 -5z m-1004 -11 c-7 -2 -19 -2 -25 0 -7 3
-2 5 12 5 14 0 19 -2 13 -5z m524 1 c-3 -3 -12 -4 -19 -1 -8 3 -5 6 6 6 11 1
17 -2 13 -5z m228 -4 c-11 -5 -29 -8 -40 -8 -16 0 -15 2 5 8 34 11 60 11 35 0z
m-1705 -25 c13 -14 19 -25 13 -25 -5 0 -20 11 -33 25 -13 14 -19 25 -13 25 5
0 20 -11 33 -25z m180 10 c0 -9 -9 -15 -22 -15 -22 1 -23 1 -4 15 25 19 26 19
26 0z m1183 8 c-7 -2 -19 -2 -25 0 -7 3 -2 5 12 5 14 0 19 -2 13 -5z m682 -8
c-61 -26 -375 -58 -485 -49 -86 8 -72 23 20 22 51 -1 52 -1 20 -9 -25 -6 -18
-6 25 -2 33 3 96 6 140 8 44 2 109 10 144 19 36 8 68 13 72 10 4 -2 18 0 31 5
12 6 32 10 43 10 15 -1 13 -4 -10 -14z m-1525 -5 c8 -5 11 -10 5 -10 -5 0 -17
5 -25 10 -8 5 -10 10 -5 10 6 0 17 -5 25 -10z m229 -6 c10 -9 -45 -3 -59 6
-11 7 -5 8 20 4 19 -4 37 -8 39 -10z m1071 6 c0 -5 -12 -10 -27 -9 l-28 1 25
8 c14 4 26 8 28 9 1 1 2 -3 2 -9z m-800 -21 c9 -6 0 -7 -25 -3 -22 4 -47 11
-55 15 -9 6 0 7 25 3 22 -4 47 -11 55 -15z m-1384 -16 c-7 -7 -26 7 -26 19 0
6 6 6 15 -2 9 -7 13 -15 11 -17z m1309 1 c44 -9 87 -24 95 -31 13 -13 12 -14
-10 -9 -14 3 -41 8 -60 10 -54 6 -120 26 -120 36 0 5 -7 7 -15 4 -8 -4 -15 -1
-15 6 0 7 9 10 23 7 12 -3 58 -13 102 -23z m188 9 c-7 -2 -19 -2 -25 0 -7 3
-2 5 12 5 14 0 19 -2 13 -5z m832 -23 c-3 -5 -30 -9 -58 -8 l-52 1 45 7 c69
11 72 11 65 0z m-872 -7 c-7 -2 -21 -2 -30 0 -10 3 -4 5 12 5 17 0 24 -2 18
-5z m117 -13 c18 -12 2 -12 -25 0 -13 6 -15 9 -5 9 8 0 22 -4 30 -9z m-1379
-37 c16 -10 29 -21 29 -25 0 -10 -56 18 -65 32 -9 15 3 12 36 -7z"/>
<path d="M1720 2101 c0 -9 30 -24 36 -18 2 1 -6 8 -16 15 -11 7 -20 8 -20 3z"/>
<path d="M1750 2051 c0 -6 5 -11 10 -11 6 0 10 -6 10 -14 0 -20 19 -70 25 -64
8 7 -22 92 -33 96 -7 2 -12 -1 -12 -7z"/>
<path d="M1816 2030 c3 -14 11 -32 16 -40 6 -10 7 -7 2 10 -3 14 -11 32 -16
40 -6 10 -7 7 -2 -10z"/>
<path d="M1800 2013 c0 -7 9 -36 20 -64 10 -29 17 -55 15 -59 -2 -4 1 -7 8 -7
7 0 12 14 13 31 1 17 -1 25 -4 17 -2 -8 -15 10 -28 40 -13 30 -23 48 -24 42z"/>
<path d="M1652 1990 c0 -14 2 -19 5 -12 2 6 2 18 0 25 -3 6 -5 1 -5 -13z"/>
<path d="M1821 1835 c0 -5 6 -21 14 -35 8 -14 14 -20 14 -15 0 6 -6 21 -14 35
-8 14 -14 21 -14 15z"/>
<path d="M1920 1771 c0 -5 11 -22 25 -37 14 -15 25 -32 25 -37 0 -6 3 -7 6 -4
4 4 -1 19 -11 34 -24 37 -45 57 -45 44z"/>
<path d="M1830 1731 c0 -6 4 -13 10 -16 6 -3 7 1 4 9 -7 18 -14 21 -14 7z"/>
<path d="M1915 1690 c9 -16 18 -30 21 -30 2 0 -2 14 -11 30 -9 17 -18 30 -21
30 -2 0 2 -13 11 -30z"/>
<path d="M2010 1602 c0 -4 9 -13 20 -20 22 -13 27 -3 8 16 -14 14 -28 16 -28
4z"/>
<path d="M1961 1567 c14 -31 22 -33 42 -12 8 8 17 12 21 10 3 -3 3 -2 0 3 -3
4 -9 7 -12 7 -4 0 -13 4 -21 9 -11 7 -13 5 -7 -9 7 -18 6 -18 -14 0 l-22 20
13 -28z"/>
<path d="M1922 1562 c23 -31 52 -56 65 -58 8 -1 -1 14 -18 34 -33 37 -73 58
-47 24z"/>
<path d="M2025 1910 c3 -5 11 -10 16 -10 6 0 7 5 4 10 -3 6 -11 10 -16 10 -6
0 -7 -4 -4 -10z"/>
<path d="M1566 1867 c3 -10 9 -15 12 -12 3 3 0 11 -7 18 -10 9 -11 8 -5 -6z"/>
<path d="M4340 1670 c-9 -6 -10 -10 -3 -10 6 0 15 5 18 10 8 12 4 12 -15 0z"/>
<path d="M3242 3474 c10 -10 20 -16 22 -13 3 3 -5 11 -17 18 -21 13 -21 12 -5
-5z"/>
<path d="M2851 3430 c-91 -38 -237 -126 -263 -158 -7 -9 7 -2 32 14 25 17 53
33 63 37 9 4 17 11 17 16 0 13 164 91 206 98 19 3 34 9 34 14 0 4 8 10 18 12
11 3 12 5 2 5 -8 0 -57 -17 -109 -38z"/>
<path d="M3170 3453 c0 -6 8 -17 18 -24 16 -13 16 -13 2 6 -8 11 -16 22 -17
24 -2 2 -3 0 -3 -6z"/>
<path d="M3455 3370 c1 -21 35 -63 43 -55 3 3 16 -5 29 -17 41 -39 24 -11 -25
41 -36 38 -48 46 -47 31z m36 -37 c13 -16 12 -17 -3 -4 -17 13 -22 21 -14 21
2 0 10 -8 17 -17z"/>
<path d="M3590 3286 c0 -2 8 -10 18 -17 15 -13 16 -12 3 4 -13 16 -21 21 -21
13z"/>
<path d="M3720 3243 c5 -13 15 -32 20 -43 6 -11 7 -20 2 -20 -4 0 -13 9 -20
20 -7 11 -17 20 -22 20 -6 0 4 -16 21 -35 17 -19 35 -33 40 -32 5 1 25 -16 45
-38 19 -22 30 -30 24 -18 -5 12 -15 25 -20 28 -6 4 -17 21 -24 38 -8 18 -28
48 -45 67 -22 24 -29 28 -21 13z"/>
<path d="M3620 3235 c0 -2 9 -9 20 -15 16 -9 18 -8 14 5 -5 13 -34 22 -34 10z"/>
<path d="M3725 3140 c32 -36 65 -72 74 -80 13 -13 13 -13 2 3 -17 22 -4 22 23
0 12 -10 8 -3 -8 15 -17 17 -34 32 -40 32 -6 0 -33 21 -60 48 -48 44 -47 43 9
-18z"/>
<path d="M3862 3150 c2 -8 -3 -14 -10 -12 -7 1 -4 -10 9 -28 13 -16 28 -30 33
-30 6 0 5 4 -2 9 -7 4 -14 20 -16 34 -1 15 -6 30 -10 35 -4 4 -6 0 -4 -8z"/>
<path d="M3662 3122 c-9 -6 -5 -15 15 -33 23 -20 25 -20 9 -2 -10 12 -15 27
-11 32 7 13 4 14 -13 3z"/>
<path d="M3850 3080 c0 -5 5 -10 11 -10 5 0 7 5 4 10 -3 6 -8 10 -11 10 -2 0
-4 -4 -4 -10z"/>
<path d="M3975 3053 c38 -60 69 -96 73 -85 4 14 -65 112 -80 112 -6 0 -2 -12
7 -27z"/>
<path d="M3905 3005 c25 -30 44 -57 43 -62 -3 -8 110 -153 119 -153 7 0 -8 22
-49 72 -35 42 -37 49 -27 72 10 21 9 29 -4 44 -20 22 -22 36 -4 26 9 -6 8 -3
-1 8 -15 18 -46 13 -35 -6 3 -6 15 -21 26 -33 11 -13 17 -26 13 -30 -4 -4 -12
1 -18 12 -6 11 -22 30 -34 42 -13 13 -27 30 -32 40 -6 9 -17 18 -26 19 -11 2
-1 -16 29 -51z"/>
<path d="M3860 3026 c0 -2 8 -10 18 -17 15 -13 16 -12 3 4 -13 16 -21 21 -21
13z"/>
<path d="M3778 3001 c15 -13 18 -21 10 -24 -16 -5 2 -29 46 -60 22 -15 27 -16
17 -4 -16 20 -2 23 19 5 8 -7 4 -1 -9 15 -14 15 -33 27 -44 27 -14 0 -17 5
-13 16 4 10 -1 22 -11 30 -28 21 -41 16 -15 -5z"/>
<path d="M3850 2966 c0 -2 8 -10 18 -17 15 -13 16 -12 3 4 -13 16 -21 21 -21
13z"/>
<path d="M4006 2934 c-8 -20 -8 -24 2 -23 18 3 26 -2 14 -9 -9 -6 -5 -15 15
-33 20 -17 23 -18 10 -3 -21 26 -22 41 -1 23 10 -8 8 0 -6 24 -25 42 -26 43
-34 21z"/>
<path d="M3902 2924 c10 -10 20 -15 24 -12 3 4 -5 12 -18 18 -22 12 -22 12 -6
-6z"/>
<path d="M3995 2826 c10 -14 19 -26 22 -26 7 0 -17 39 -28 46 -6 3 -3 -5 6
-20z"/>
<path d="M4089 2834 c6 -12 7 -25 3 -29 -4 -3 -2 -6 3 -5 21 5 29 -1 15 -10
-9 -6 -10 -10 -3 -10 23 0 22 16 -3 46 -17 19 -22 22 -15 8z"/>
<path d="M3962 2794 c10 -10 20 -16 22 -13 3 3 -5 11 -17 18 -21 13 -21 12 -5
-5z"/>
<path d="M4030 2782 c0 -6 -7 -9 -15 -6 -32 12 -13 -5 32 -31 l48 -26 -25 28
c-14 15 -28 32 -32 38 -5 5 -8 4 -8 -3z"/>
<path d="M4114 2738 c21 -25 48 -54 62 -63 14 -9 33 -30 43 -46 10 -17 23 -31
27 -32 5 -1 8 -7 8 -14 -1 -6 7 -11 16 -10 22 1 32 43 15 57 -9 8 -11 3 -8
-17 3 -27 3 -27 -8 -5 -7 12 -17 22 -24 22 -6 0 -25 16 -41 35 -16 19 -32 35
-36 35 -4 0 -26 19 -49 43 l-41 42 36 -47z"/>
<path d="M2499 2703 c-13 -16 -12 -17 4 -4 9 7 17 15 17 17 0 8 -8 3 -21 -13z"/>
<path d="M4070 2686 c0 -2 8 -10 18 -17 15 -13 16 -12 3 4 -13 16 -21 21 -21
13z"/>
<path d="M4090 2611 c14 -11 30 -21 35 -21 11 0 -7 14 -40 31 -13 7 -12 3 5
-10z"/>
<path d="M4260 2555 c0 -16 22 -35 40 -35 11 1 10 4 -5 12 -11 6 -23 16 -27
22 -5 7 -8 8 -8 1z"/>
<path d="M3946 2535 c-3 -8 -1 -15 5 -15 5 0 15 -11 21 -25 8 -18 14 -22 19
-13 5 7 0 18 -12 26 -11 8 -18 20 -15 28 3 8 1 14 -3 14 -5 0 -11 -7 -15 -15z"/>
<path d="M4090 2541 c0 -5 7 -12 16 -15 14 -5 15 -4 4 9 -14 17 -20 19 -20 6z"/>
<path d="M4049 2522 c6 -12 16 -24 22 -28 8 -4 8 -1 0 14 -6 12 -16 24 -22 28
-8 4 -8 1 0 -14z"/>
<path d="M4220 2529 c0 -5 5 -7 10 -4 6 3 10 8 10 11 0 2 -4 4 -10 4 -5 0 -10
-5 -10 -11z"/>
<path d="M4194 2501 c5 -8 3 -17 -5 -22 -8 -5 -9 -9 -4 -9 6 0 16 4 23 9 10 6
9 11 -4 22 -14 11 -16 11 -10 0z"/>
<path d="M4029 2482 c6 -12 16 -24 22 -28 8 -4 8 -1 0 14 -6 12 -16 24 -22 28
-8 4 -8 1 0 -14z"/>
<path d="M2305 2470 c10 -11 20 -20 23 -20 3 0 -3 9 -13 20 -10 11 -20 20 -23
20 -3 0 3 -9 13 -20z"/>
<path d="M2333 2473 c18 -20 18 -22 -10 -48 -19 -18 -22 -24 -8 -17 11 6 33
24 49 41 25 27 26 29 7 24 -11 -3 -29 1 -39 8 -15 12 -15 11 1 -8z"/>
<path d="M3915 2450 c3 -5 8 -10 11 -10 2 0 4 5 4 10 0 6 -5 10 -11 10 -5 0
-7 -4 -4 -10z"/>
<path d="M4135 2406 c27 -23 65 -40 65 -30 0 6 -78 54 -87 54 -5 0 6 -11 22
-24z"/>
<path d="M3860 2411 c0 -5 7 -12 16 -15 14 -5 15 -4 4 9 -14 17 -20 19 -20 6z"/>
<path d="M3975 2410 c3 -5 8 -10 11 -10 2 0 4 5 4 10 0 6 -5 10 -11 10 -5 0
-7 -4 -4 -10z"/>
<path d="M4228 2413 c6 -2 18 -2 25 0 6 3 1 5 -13 5 -14 0 -19 -2 -12 -5z"/>
<path d="M2160 2370 c0 -14 39 -18 50 -5 9 11 5 14 -19 13 -17 -1 -31 -4 -31
-8z"/>
<path d="M3348 2333 c9 -18 20 -29 24 -25 13 13 -8 59 -25 59 -13 0 -13 -5 1
-34z"/>
<path d="M4050 2355 c0 -8 8 -11 20 -8 11 3 20 7 20 8 0 1 -9 5 -20 8 -12 3
-20 0 -20 -8z"/>
<path d="M3966 2352 c-2 -4 -1 -14 5 -22 7 -12 9 -10 9 8 0 23 -5 28 -14 14z"/>
<path d="M4200 2354 c0 -14 27 -50 33 -44 3 3 -3 16 -13 30 -11 14 -20 20 -20
14z"/>
<path d="M2132 2341 c4 -13 18 -16 19 -4 0 4 -5 9 -11 12 -7 2 -11 -2 -8 -8z"/>
<path d="M2085 2313 c-3 -9 -3 -18 0 -21 3 -3 5 0 5 8 0 10 3 10 15 0 13 -11
14 -10 8 6 -6 17 -5 18 13 4 15 -11 16 -11 7 0 -18 19 -41 21 -48 3z"/>
<path d="M4605 2320 c3 -4 16 -10 30 -12 13 -3 22 -2 20 2 -3 4 -16 10 -30 12
-13 3 -22 2 -20 -2z"/>
<path d="M2420 2265 c-7 -9 -11 -17 -9 -20 3 -2 10 5 17 15 14 24 10 26 -8 5z"/>
<path d="M4106 2263 c-3 -4 10 -15 30 -25 21 -10 40 -16 42 -13 3 3 0 5 -7 5
-7 0 -11 6 -8 14 4 10 0 12 -14 9 -10 -3 -19 0 -19 6 0 12 -13 15 -24 4z"/>
<path d="M4225 2250 c-16 -7 -17 -9 -3 -9 9 -1 20 4 23 9 7 11 7 11 -20 0z"/>
<path d="M2076 2206 c21 -19 41 -33 42 -31 5 5 -61 64 -72 65 -5 0 8 -15 30
-34z"/>
<path d="M3420 2235 c0 -5 5 -17 10 -25 5 -8 10 -10 10 -5 0 6 -5 17 -10 25
-5 8 -10 11 -10 5z"/>
<path d="M3401 2227 c-1 -4 6 -21 14 -37 16 -31 13 -36 -33 -50 -23 -7 -20 -8
17 -7 31 0 46 -4 53 -17 5 -9 14 -13 20 -10 7 4 8 2 4 -4 -4 -7 5 -32 19 -57
24 -41 25 -45 8 -45 -15 0 -16 -2 -3 -10 11 -7 -1 -10 -40 -9 -41 0 -50 3 -35
9 23 10 -60 2 -85 -8 -8 -3 -91 -9 -185 -12 l-170 -6 205 -2 c184 -1 307 6
350 20 8 3 12 3 8 1 -5 -3 -8 -9 -8 -15 0 -6 6 -6 15 2 13 11 12 16 -11 42
-14 17 -34 48 -45 69 -11 22 -23 39 -28 39 -5 0 -7 9 -4 21 4 14 0 22 -14 25
-11 3 -27 20 -36 37 -9 18 -16 28 -16 24z"/>
<path d="M4370 2216 c0 -2 7 -7 16 -10 8 -3 12 -2 9 4 -6 10 -25 14 -25 6z"/>
<path d="M2355 2200 c-3 -5 -14 -10 -24 -10 -15 0 -111 -46 -111 -53 0 -1 12
-2 28 -2 28 0 90 33 112 60 7 8 10 15 7 15 -3 0 -9 -4 -12 -10z"/>
<path d="M4075 2190 c-3 -6 1 -7 10 -4 8 4 23 0 33 -7 15 -13 16 -12 3 4 -15
19 -36 22 -46 7z"/>
<path d="M4775 2170 c9 -16 18 -30 21 -30 2 0 -2 14 -11 30 -9 17 -18 30 -21
30 -2 0 2 -13 11 -30z"/>
<path d="M4360 2186 c0 -2 8 -10 18 -17 15 -13 16 -12 3 4 -13 16 -21 21 -21
13z"/>
<path d="M3590 2169 c0 -5 7 -12 16 -16 8 -3 13 -12 10 -20 -4 -9 4 -7 24 7
34 24 52 48 22 29 -16 -10 -26 -10 -46 -1 -17 7 -26 8 -26 1z"/>
<path d="M3845 2171 c-2 -5 1 -14 9 -20 10 -9 15 -8 19 3 6 15 -19 31 -28 17z"/>
<path d="M3978 2158 c5 -5 16 -8 23 -6 8 3 3 7 -10 11 -17 4 -21 3 -13 -5z"/>
<path d="M4135 2150 c-3 -5 1 -10 9 -10 9 0 16 5 16 10 0 6 -4 10 -9 10 -6 0
-13 -4 -16 -10z"/>
<path d="M3698 2128 c6 -6 19 -13 27 -14 13 -2 14 1 4 12 -6 8 -19 14 -27 14
-12 0 -13 -3 -4 -12z"/>
<path d="M4007 2134 c-3 -5 8 -9 24 -10 16 -1 36 -7 45 -15 15 -12 14 -14 -3
-20 -16 -7 -16 -8 -1 -8 23 -1 29 11 14 32 -15 19 -71 34 -79 21z"/>
<path d="M4214 2131 c-5 -5 -18 -11 -29 -13 -17 -3 -18 -5 -3 -10 16 -7 58 16
47 26 -3 3 -10 2 -15 -3z"/>
<path d="M2060 2127 c0 -3 12 -12 26 -22 15 -9 23 -12 20 -6 -7 11 -46 35 -46
28z"/>
<path d="M3147 2123 c-9 -2 -15 -8 -12 -13 6 -10 45 -1 45 11 0 9 -4 10 -33 2z"/>
<path d="M4480 2117 c0 -2 15 -16 33 -33 l32 -29 -29 33 c-28 30 -36 37 -36
29z"/>
<path d="M3640 2102 c0 -6 9 -12 20 -15 11 -3 20 -3 20 -1 0 2 -9 8 -20 14
-11 6 -20 7 -20 2z"/>
<path d="M3080 2090 c-9 -6 -10 -10 -3 -10 6 0 15 5 18 10 8 12 4 12 -15 0z"/>
<path d="M3956 2088 c3 -5 10 -6 15 -3 13 9 11 12 -6 12 -8 0 -12 -4 -9 -9z"/>
<path d="M2650 2077 c0 -7 68 -2 77 6 2 3 -14 4 -36 3 -23 0 -41 -4 -41 -9z"/>
<path d="M2820 2080 c0 -5 7 -7 15 -4 8 4 15 8 15 10 0 2 -7 4 -15 4 -8 0 -15
-4 -15 -10z"/>
<path d="M4587 2073 c6 -16 5 -16 -10 -4 -28 22 -28 8 -1 -18 19 -18 23 -19
17 -6 -4 13 -3 16 6 10 10 -6 11 -3 2 14 -14 25 -23 28 -14 4z"/>
<path d="M4153 2073 c-7 -2 -13 -9 -13 -15 0 -7 4 -7 13 0 6 5 21 12 32 15
l20 5 -20 0 c-11 0 -26 -2 -32 -5z"/>
<path d="M4006 2059 c2 -4 13 -7 24 -6 23 2 17 10 -10 12 -10 1 -17 -2 -14 -6z"/>
<path d="M4680 2037 c0 -14 5 -29 10 -32 7 -4 8 3 4 22 -9 38 -14 42 -14 10z"/>
<path d="M4872 2030 c0 -19 2 -27 5 -17 2 9 2 25 0 35 -3 9 -5 1 -5 -18z"/>
<path d="M2325 2040 c-3 -6 1 -7 9 -4 18 7 21 14 7 14 -6 0 -13 -4 -16 -10z"/>
<path d="M4055 2040 c-18 -8 -16 -10 14 -14 5 0 13 -4 17 -8 4 -5 12 -8 18 -8
6 0 3 5 -7 11 -9 6 -15 14 -12 20 7 11 -3 11 -30 -1z"/>
<path d="M4523 2010 c6 -16 13 -28 15 -26 6 6 -10 56 -18 56 -5 0 -3 -13 3
-30z"/>
<path d="M2224 1984 c-30 -22 -57 -34 -71 -31 -16 3 -20 0 -15 -11 4 -12 0
-14 -19 -9 -21 5 -25 3 -27 -19 -2 -26 -2 -26 23 -10 14 9 31 14 37 10 7 -4 8
-3 4 4 -4 7 -1 12 8 12 8 0 16 6 19 13 3 9 7 9 20 -2 17 -13 14 -31 -4 -31 -6
0 -7 4 -4 10 3 6 -1 7 -10 4 -9 -4 -14 -13 -11 -21 5 -12 0 -13 -27 -8 -25 6
-29 4 -20 -5 6 -7 9 -19 6 -26 -8 -21 4 -17 42 12 19 14 40 27 47 28 7 1 19 5
26 9 6 5 17 5 22 2 6 -3 10 -2 10 3 0 5 30 24 66 41 37 18 64 34 61 37 -3 3
-14 1 -24 -4 -14 -9 -21 -6 -31 11 -9 14 -11 16 -8 4 5 -14 1 -16 -22 -12 -27
6 -27 6 3 -8 26 -12 27 -14 11 -20 -20 -8 -60 19 -51 34 15 23 -17 14 -61 -17z
m57 0 c12 -15 11 -16 -11 -10 -24 7 -24 6 -6 -8 23 -18 14 -21 -15 -6 -16 9
-17 13 -7 25 17 19 23 18 39 -1z m-31 -47 c0 -4 -9 -3 -20 3 -11 6 -20 15 -20
20 0 6 9 5 20 -2 11 -7 20 -16 20 -21z"/>
<path d="M4149 2003 c-13 -17 -13 -17 6 -3 11 8 22 16 24 17 2 2 0 3 -6 3 -6
0 -17 -8 -24 -17z"/>
<path d="M3610 1993 c8 -3 22 -11 30 -17 13 -10 13 -9 1 7 -7 9 -21 17 -30 16
-13 0 -14 -1 -1 -6z"/>
<path d="M4573 1967 c-1 -30 -1 -31 8 -8 5 14 6 28 2 32 -4 4 -9 -6 -10 -24z"/>
<path d="M4035 1980 c-4 -6 3 -10 14 -10 25 0 27 6 6 13 -8 4 -17 2 -20 -3z"/>
<path d="M3986 1965 c-11 -8 -15 -15 -9 -15 6 0 16 7 23 15 16 19 11 19 -14 0z"/>
<path d="M2943 1963 c9 -2 23 -2 30 0 6 3 -1 5 -18 5 -16 0 -22 -2 -12 -5z"/>
<path d="M4089 1943 l-24 -26 27 19 c15 10 28 22 28 27 0 12 -5 8 -31 -20z"/>
<path d="M4545 1937 c3 -17 -2 -42 -15 -67 -11 -22 -17 -40 -12 -40 4 0 16 18
26 40 14 32 15 46 7 68 l-11 27 5 -28z"/>
<path d="M3585 1940 c3 -5 8 -10 11 -10 2 0 4 5 4 10 0 6 -5 10 -11 10 -5 0
-7 -4 -4 -10z"/>
<path d="M3935 1920 c-3 -5 -2 -10 4 -10 5 0 13 5 16 10 3 6 2 10 -4 10 -5 0
-13 -4 -16 -10z"/>
<path d="M4607 1923 c-4 -3 -7 -20 -6 -37 l1 -31 8 35 c9 36 8 45 -3 33z"/>
<path d="M3545 1910 c3 -5 11 -10 16 -10 6 0 7 5 4 10 -3 6 -11 10 -16 10 -6
0 -7 -4 -4 -10z"/>
<path d="M3988 1913 c-10 -2 -18 -11 -18 -18 0 -8 -7 -18 -16 -23 -19 -11 -10
-32 13 -32 14 0 13 -3 -3 -22 -10 -12 -13 -18 -6 -14 6 4 12 3 12 -3 0 -6 7
-7 17 -4 12 5 14 3 8 -8 -9 -14 -9 -14 35 19 3 2 -2 3 -10 2 -8 -1 -23 -2 -34
-1 -14 1 -16 4 -7 15 9 10 7 16 -5 27 -14 11 -12 16 17 41 31 28 31 30 -3 21z"/>
<path d="M4024 1878 l-29 -33 35 30 c19 17 37 31 39 33 2 1 0 2 -5 2 -6 0 -23
-15 -40 -32z"/>
<path d="M1380 1890 c-9 -6 -10 -10 -3 -10 6 0 15 5 18 10 8 12 4 12 -15 0z"/>
<path d="M3447 1893 c-4 -3 -7 -11 -7 -17 0 -7 3 -7 8 0 4 7 18 14 32 17 l25
4 -26 2 c-14 0 -29 -2 -32 -6z"/>
<path d="M3824 1885 c-4 -8 -10 -12 -15 -9 -5 3 -9 3 -9 0 0 -3 8 -10 18 -15
14 -7 17 -5 17 15 0 28 -3 30 -11 9z"/>
<path d="M4480 1891 c0 -6 4 -13 10 -16 6 -3 7 1 4 9 -7 18 -14 21 -14 7z"/>
<path d="M4680 1885 c0 -8 2 -15 4 -15 2 0 6 7 10 15 3 8 1 15 -4 15 -6 0 -10
-7 -10 -15z"/>
<path d="M3921 1881 c-8 -5 -9 -11 -3 -15 5 -3 12 1 16 9 6 17 6 18 -13 6z"/>
<path d="M4014 1838 l-19 -23 23 19 c21 18 27 26 19 26 -2 0 -12 -10 -23 -22z"/>
<path d="M4566 1843 c-6 -14 -5 -15 5 -6 7 7 10 15 7 18 -3 3 -9 -2 -12 -12z"/>
<path d="M2434 1834 c-18 -14 -18 -14 6 -3 31 14 36 19 24 19 -6 0 -19 -7 -30
-16z"/>
<path d="M3766 1835 c4 -8 11 -15 16 -15 6 0 5 6 -2 15 -7 8 -14 15 -16 15 -2
0 -1 -7 2 -15z"/>
<path d="M3887 1824 c3 -8 11 -14 19 -14 21 0 17 17 -5 23 -14 3 -18 1 -14 -9z"/>
<path d="M1306 1813 c-6 -14 -5 -15 5 -6 7 7 10 15 7 18 -3 3 -9 -2 -12 -12z"/>
<path d="M2390 1810 c-9 -6 -10 -10 -3 -10 6 0 15 5 18 10 8 12 4 12 -15 0z"/>
<path d="M4589 1798 c-11 -20 -10 -21 3 -11 8 7 18 10 21 6 4 -3 7 -1 7 5 0
22 -19 22 -31 0z"/>
<path d="M1266 1784 c-23 -23 -20 -30 4 -9 11 10 20 20 20 22 0 7 -9 2 -24
-13z"/>
<path d="M1327 1793 c-4 -3 -7 -14 -7 -24 0 -9 -9 -19 -20 -22 -15 -4 -20 -13
-18 -39 l1 -33 4 33 c3 23 9 32 23 32 10 0 20 -6 23 -12 3 -7 5 6 5 30 0 44
-1 46 -11 35z"/>
<path d="M4621 1764 c0 -11 3 -14 6 -6 3 7 2 16 -1 19 -3 4 -6 -2 -5 -13z"/>
<path d="M3818 1753 c6 -2 18 -2 25 0 6 3 1 5 -13 5 -14 0 -19 -2 -12 -5z"/>
<path d="M3769 1729 c-10 -19 -9 -20 13 -8 31 16 31 16 14 22 -10 4 -20 -2
-27 -14z"/>
<path d="M3680 1725 c-11 -13 -10 -14 4 -9 9 3 16 10 16 15 0 13 -6 11 -20 -6z"/>
<path d="M3568 1723 c7 -3 16 -2 19 1 4 3 -2 6 -13 5 -11 0 -14 -3 -6 -6z"/>
<path d="M3621 1711 c-8 -5 -9 -11 -3 -15 5 -3 12 1 16 9 6 17 6 18 -13 6z"/>
<path d="M3825 1710 c-3 -5 -1 -10 4 -10 6 0 11 5 11 10 0 6 -2 10 -4 10 -3 0
-8 -4 -11 -10z"/>
<path d="M4580 1684 c-12 -19 -25 -33 -28 -30 -2 3 1 12 8 20 6 9 10 20 8 27
-2 6 -10 -1 -17 -14 -8 -14 -11 -33 -7 -42 5 -14 8 -14 24 2 26 26 54 73 43
73 -5 0 -19 -16 -31 -36z"/>
<path d="M1341 1700 c0 -8 4 -22 9 -30 12 -18 12 -2 0 25 -6 13 -9 15 -9 5z"/>
<path d="M3745 1690 c11 -5 16 -9 10 -9 -10 -1 42 -31 54 -31 3 0 -7 11 -24
25 -16 13 -37 24 -45 24 -10 0 -8 -3 5 -9z"/>
<path d="M2890 1677 c0 -2 15 -16 33 -33 l32 -29 -29 33 c-28 30 -36 37 -36
29z"/>
<path d="M2670 1656 c0 -2 8 -10 18 -17 15 -13 16 -12 3 4 -13 16 -21 21 -21
13z"/>
<path d="M3585 1650 c-3 -5 -2 -10 4 -10 5 0 13 5 16 10 3 6 2 10 -4 10 -5 0
-13 -4 -16 -10z"/>
<path d="M3714 1646 c23 -18 46 -21 46 -5 0 5 -4 7 -10 4 -5 -3 -20 -1 -32 5
-22 11 -22 10 -4 -4z"/>
<path d="M3788 1633 c-10 -2 -18 -9 -18 -14 0 -14 20 -11 36 6 16 15 13 16
-18 8z"/>
<path d="M3648 1607 c15 -17 6 -27 -27 -28 -18 -1 -21 -3 -8 -6 16 -4 94 24
85 31 -2 2 -16 6 -32 10 -25 6 -28 5 -18 -7z"/>
<path d="M2560 1606 c0 -2 8 -10 18 -17 15 -13 16 -12 3 4 -13 16 -21 21 -21
13z"/>
<path d="M2647 1599 c7 -7 15 -10 18 -7 3 3 -2 9 -12 12 -14 6 -15 5 -6 -5z"/>
<path d="M3027 1599 c7 -7 15 -10 18 -7 3 3 -2 9 -12 12 -14 6 -15 5 -6 -5z"/>
<path d="M2412 1584 c10 -10 20 -15 24 -12 3 4 -5 12 -18 18 -22 12 -22 12 -6
-6z"/>
<path d="M2475 1580 c10 -11 23 -20 28 -20 6 0 2 9 -8 20 -10 11 -23 20 -28
20 -6 0 -2 -9 8 -20z"/>
<path d="M2520 1596 c0 -2 8 -10 18 -17 15 -13 16 -12 3 4 -13 16 -21 21 -21
13z"/>
<path d="M2835 1580 c10 -11 20 -20 23 -20 3 0 -3 9 -13 20 -10 11 -20 20 -23
20 -3 0 3 -9 13 -20z"/>
<path d="M3260 1590 c0 -5 5 -10 11 -10 5 0 7 5 4 10 -3 6 -8 10 -11 10 -2 0
-4 -4 -4 -10z"/>
<path d="M4462 1540 c-35 -33 -60 -60 -55 -60 4 0 29 21 57 48 27 26 46 39 43
30 -7 -20 0 -22 22 -9 11 7 12 15 5 30 -8 19 -13 16 -72 -39z"/>
<path d="M2340 1585 c0 -2 10 -10 23 -16 20 -11 21 -11 8 4 -13 16 -31 23 -31
12z"/>
<path d="M2720 1576 c0 -2 8 -10 18 -17 15 -13 16 -12 3 4 -13 16 -21 21 -21
13z"/>
<path d="M2760 1576 c0 -2 8 -10 18 -17 15 -13 16 -12 3 4 -13 16 -21 21 -21
13z"/>
<path d="M2820 1555 c13 -14 26 -25 28 -25 3 0 -5 11 -18 25 -13 14 -26 25
-28 25 -3 0 5 -11 18 -25z"/>
<path d="M2951 1578 c2 -2 20 -16 39 -33 l35 -30 -29 33 c-17 17 -34 32 -40
32 -5 0 -7 -1 -5 -2z"/>
<path d="M2140 1545 c13 -14 26 -25 28 -25 3 0 -5 11 -18 25 -13 14 -26 25
-28 25 -3 0 5 -11 18 -25z"/>
<path d="M4351 1542 c-16 -15 -43 -40 -61 -55 -17 -16 -29 -31 -26 -34 3 -3
26 13 51 36 24 22 52 41 61 41 14 0 14 -3 4 -15 -23 -28 -5 -23 21 5 l25 28
-23 11 c-20 9 -28 7 -52 -17z"/>
<path d="M3480 1536 c0 -2 7 -7 16 -10 8 -3 12 -2 9 4 -6 10 -25 14 -25 6z"/>
<path d="M2975 1510 c10 -11 20 -20 23 -20 3 0 -3 9 -13 20 -10 11 -20 20 -23
20 -3 0 3 -9 13 -20z"/>
<path d="M3285 1480 c21 -16 41 -30 44 -30 9 1 -63 59 -73 60 -5 0 8 -13 29
-30z"/>
<path d="M4146 1495 c-11 -8 -16 -15 -10 -15 5 0 18 7 28 15 11 8 16 15 10 15
-5 0 -18 -7 -28 -15z"/>
<path d="M4333 1464 c-12 -13 -18 -24 -14 -24 10 0 45 39 40 44 -2 3 -14 -6
-26 -20z"/>
<path d="M3360 1457 c0 -21 12 -28 27 -16 8 7 18 8 26 3 7 -5 4 -1 -6 9 -23
20 -47 22 -47 4z"/>
<path d="M4104 1428 l-19 -23 23 19 c12 11 22 21 22 23 0 8 -8 2 -26 -19z"/>
<path d="M4058 1417 c-7 -8 -18 -12 -25 -10 -6 2 -14 -1 -18 -6 -4 -7 0 -8 11
-4 14 5 16 3 11 -11 -6 -15 -5 -15 17 1 12 9 23 23 23 30 0 16 -2 16 -19 0z"/>
<path d="M4350 1410 c-9 -6 -10 -10 -3 -10 6 0 15 5 18 10 8 12 4 12 -15 0z"/>
<path d="M4150 1390 c-8 -5 -11 -13 -6 -17 5 -4 11 -2 13 5 3 6 9 12 14 12 6
0 7 -4 4 -10 -9 -14 1 -12 13 3 8 10 7 13 -7 14 -9 1 -24 -2 -31 -7z"/>
<path d="M2278 1363 c6 -2 18 -2 25 0 6 3 1 5 -13 5 -14 0 -19 -2 -12 -5z"/>
<path d="M4088 1363 c7 -3 16 -2 19 1 4 3 -2 6 -13 5 -11 0 -14 -3 -6 -6z"/>
<path d="M3948 1333 c-27 -14 -46 -28 -45 -30 7 -6 73 26 87 41 17 21 13 20
-42 -11z"/>
<path d="M4024 1344 c-18 -14 -18 -15 4 -4 12 6 22 13 22 15 0 8 -5 6 -26 -11z"/>
<path d="M2056 1318 c3 -5 10 -6 15 -3 13 9 11 12 -6 12 -8 0 -12 -4 -9 -9z"/>
<path d="M2308 1323 c7 -3 16 -2 19 1 4 3 -2 6 -13 5 -11 0 -14 -3 -6 -6z"/>
<path d="M2363 1313 c9 -2 23 -2 30 0 6 3 -1 5 -18 5 -16 0 -22 -2 -12 -5z"/>
<path d="M2415 1310 c3 -5 11 -10 16 -10 6 0 7 5 4 10 -3 6 -11 10 -16 10 -6
0 -7 -4 -4 -10z"/>
<path d="M3790 1310 c-9 -6 -10 -10 -3 -10 6 0 15 5 18 10 8 12 4 12 -15 0z"/>
<path d="M2314 1295 c15 -15 130 -35 154 -27 28 9 8 17 -33 14 -26 -3 -62 3
-85 12 -50 20 -55 20 -36 1z"/>
<path d="M3725 1290 c-3 -5 -2 -10 4 -10 5 0 13 5 16 10 3 6 2 10 -4 10 -5 0
-13 -4 -16 -10z"/>
<path d="M3797 1278 c-32 -11 -56 -22 -54 -25 5 -5 114 31 124 41 10 10 -8 6
-70 -16z"/>
<path d="M2125 1281 c36 -15 81 -23 70 -13 -5 5 -28 12 -50 16 -25 3 -33 3
-20 -3z"/>
<path d="M2496 1271 c5 -5 32 -12 59 -15 l50 -6 -55 15 c-67 17 -66 17 -54 6z"/>
<path d="M3158 1273 c7 -3 16 -2 19 1 4 3 -2 6 -13 5 -11 0 -14 -3 -6 -6z"/>
<path d="M2250 1250 c20 -13 33 -13 25 0 -3 6 -14 10 -23 10 -15 0 -15 -2 -2
-10z"/>
<path d="M3238 1253 c6 -2 18 -2 25 0 6 3 1 5 -13 5 -14 0 -19 -2 -12 -5z"/>
<path d="M3153 1243 c9 -2 25 -2 35 0 9 3 1 5 -18 5 -19 0 -27 -2 -17 -5z"/>
<path d="M1910 1236 c0 -2 7 -7 16 -10 8 -3 12 -2 9 4 -6 10 -25 14 -25 6z"/>
<path d="M2960 1226 c14 -9 19 -15 13 -16 -7 0 -13 -4 -13 -9 0 -5 9 -7 20 -4
32 8 20 38 -15 41 l-30 2 25 -14z"/>
<path d="M3023 1233 c9 -2 23 -2 30 0 6 3 -1 5 -18 5 -16 0 -22 -2 -12 -5z"/>
<path d="M3090 1233 c0 -6 -17 -14 -37 -16 -21 -2 -4 -4 37 -5 41 -1 82 3 90
8 10 7 1 8 -29 4 -31 -4 -46 -2 -52 7 -6 9 -9 10 -9 2z"/>
<path d="M2608 1213 c7 -3 16 -2 19 1 4 3 -2 6 -13 5 -11 0 -14 -3 -6 -6z"/>
<path d="M2841 1216 c2 -2 20 -6 39 -10 25 -4 31 -3 20 4 -14 9 -69 15 -59 6z"/>
<path d="M2195 1185 c17 -8 37 -14 45 -14 8 0 0 6 -19 14 -42 19 -66 18 -26 0z"/>
<path d="M3640 1190 c-21 -7 -21 -8 -5 -9 11 0 27 4 35 9 18 11 5 11 -30 0z"/>
<path d="M2088 1183 c7 -3 16 -2 19 1 4 3 -2 6 -13 5 -11 0 -14 -3 -6 -6z"/>
<path d="M2260 1162 c0 -13 47 -28 57 -18 4 3 -3 6 -13 6 -11 0 -25 5 -32 12
-9 9 -12 9 -12 0z"/>
<path d="M2078 1153 c6 -2 18 -2 25 0 6 3 1 5 -13 5 -14 0 -19 -2 -12 -5z"/>
</g>
</svg>
