<?xml version="1.0" standalone="no"?>
<!DOCTYPE svg PUBLIC "-//W3C//DTD SVG 20010904//EN"
 "http://www.w3.org/TR/2001/REC-SVG-20010904/DTD/svg10.dtd">
<svg version="1.0" xmlns="http://www.w3.org/2000/svg"
 width="286.000000pt" height="286.000000pt" viewBox="0 0 286.000000 286.000000"
 preserveAspectRatio="xMidYMid meet">

<g transform="translate(0.000000,286.000000) scale(0.100000,-0.100000)"
fill=" #4f46e5" stroke="none">
<path d="M1803 2788 c-13 -6 -23 -17 -23 -23 0 -7 124 -64 276 -126 205 -84
272 -115 258 -121 -11 -4 -246 -66 -524 -138 -278 -72 -617 -160 -753 -196
-137 -36 -256 -64 -265 -62 -9 2 -125 114 -256 251 -173 178 -246 247 -262
247 -14 0 -31 -12 -46 -32 -22 -31 -23 -40 -21 -197 1 -91 6 -174 11 -186 6
-11 16 -36 23 -55 7 -19 54 -82 104 -140 130 -152 127 -149 85 -123 -19 11
-57 33 -85 48 -27 15 -84 47 -126 71 -42 24 -82 44 -89 44 -24 0 -39 -34 -40
-87 0 -28 -5 -55 -10 -58 -13 -8 -13 -222 0 -230 5 -3 10 -22 10 -41 0 -19 4
-42 9 -52 5 -9 15 -37 22 -62 7 -25 16 -49 21 -55 4 -5 8 -17 8 -27 0 -22 37
-89 59 -105 9 -6 27 -18 41 -25 14 -7 43 -29 64 -49 38 -35 39 -38 26 -68 -7
-17 -19 -31 -26 -31 -8 0 -14 -4 -14 -10 0 -5 -13 -10 -30 -10 -16 0 -30 -3
-30 -8 0 -4 -10 -12 -22 -17 -12 -6 -26 -23 -30 -40 -10 -34 -1 -209 12 -234
4 -9 14 -36 21 -61 16 -53 26 -74 57 -117 18 -26 49 -42 170 -89 81 -31 166
-65 189 -75 24 -11 47 -19 53 -19 6 0 18 -4 28 -9 26 -13 52 -24 267 -106 110
-42 211 -81 225 -87 36 -15 52 -22 175 -68 61 -23 124 -48 140 -55 86 -37 317
-125 328 -125 7 0 64 100 127 222 63 123 166 322 228 443 63 121 198 384 302
585 103 201 197 384 208 406 l21 42 -24 -12 c-14 -6 -25 -14 -25 -18 0 -5 -7
-8 -16 -8 -9 0 -24 -8 -33 -18 -20 -22 -127 -92 -141 -92 -5 0 -10 -4 -10 -10
0 -5 -6 -10 -13 -10 -7 0 -23 -9 -35 -20 -12 -11 -24 -20 -28 -20 -3 0 -34
-19 -68 -42 -33 -24 -75 -50 -91 -58 -17 -8 -39 -22 -50 -31 -11 -9 -35 -22
-52 -30 -18 -8 -33 -17 -33 -21 0 -5 -6 -8 -13 -8 -7 0 -23 -9 -35 -20 -12
-11 -24 -20 -28 -20 -4 0 -58 -34 -121 -75 -62 -41 -118 -75 -123 -75 -6 0
-10 -4 -10 -10 0 -5 -6 -10 -13 -10 -7 0 -23 -9 -35 -20 -12 -11 -28 -20 -37
-20 -8 0 -15 -4 -15 -10 0 -5 -17 -17 -37 -27 -21 -9 -40 -19 -43 -22 -3 -4
-17 -12 -32 -20 -16 -8 -28 -18 -28 -23 0 -4 -5 -8 -11 -8 -6 0 -30 -13 -54
-30 -24 -16 -48 -30 -53 -30 -6 0 -12 -4 -14 -9 -1 -4 -37 -30 -78 -56 -41
-26 -77 -51 -80 -54 -10 -12 -50 -31 -65 -31 -15 0 -55 19 -65 31 -3 3 -50 37
-105 75 -55 38 -109 76 -119 86 -11 10 -25 18 -32 18 -7 0 -14 3 -16 8 -3 6
-89 68 -137 97 -9 6 -18 12 -21 15 -3 3 -17 11 -32 19 -16 8 -28 18 -28 23 0
4 -6 8 -13 8 -8 0 -22 9 -32 20 -10 11 -24 20 -31 20 -7 0 -14 3 -16 8 -1 4
-25 24 -53 44 -27 21 -55 42 -62 48 -7 5 -17 10 -24 10 -6 0 -19 8 -28 18 -9
9 -29 24 -46 32 -60 30 -111 91 -130 155 -9 33 -21 71 -25 85 -26 75 -44 229
-35 296 l6 54 72 -38 c40 -22 124 -68 187 -103 63 -35 129 -71 145 -79 17 -8
48 -26 70 -40 22 -14 63 -37 90 -50 28 -14 51 -28 53 -32 2 -5 8 -8 13 -8 6 0
35 -16 65 -35 30 -19 61 -35 69 -35 8 0 15 -4 15 -10 0 -5 5 -10 11 -10 6 0
23 -9 39 -20 15 -11 58 -36 96 -56 38 -20 83 -44 100 -55 l30 -18 450 243
c1013 549 1169 635 1171 643 2 4 -12 14 -29 21 -18 7 -41 18 -50 23 -10 5 -27
9 -37 9 -11 0 -23 5 -26 10 -3 6 -19 10 -36 10 -16 0 -29 5 -29 10 0 6 -13 10
-30 10 -16 0 -30 5 -30 10 0 6 -13 10 -28 10 -15 0 -33 5 -40 12 -14 14 -42
-6 -42 -32 0 -17 39 -50 60 -50 6 0 22 -7 35 -16 l24 -16 -27 -22 c-41 -32
-127 -66 -170 -66 -11 0 -24 -4 -27 -10 -3 -5 -21 -10 -40 -10 -19 0 -37 -4
-40 -10 -3 -5 -19 -10 -35 -10 -16 0 -32 -4 -35 -10 -3 -5 -22 -10 -41 -10
-19 0 -34 -4 -34 -10 0 -5 -15 -10 -34 -10 -19 0 -38 -4 -41 -10 -3 -5 -14
-10 -24 -10 -10 0 -32 -7 -47 -15 -16 -8 -39 -15 -52 -15 -12 0 -30 -4 -40 -9
-9 -5 -37 -15 -62 -21 -25 -7 -54 -16 -65 -20 -24 -10 -67 -20 -118 -27 -20
-3 -40 -9 -43 -14 -3 -5 -18 -9 -34 -9 -16 0 -32 -4 -35 -10 -3 -5 -19 -10
-36 -10 -16 0 -29 -4 -29 -10 0 -5 -15 -10 -34 -10 -19 0 -38 -4 -41 -10 -3
-5 -17 -10 -30 -10 -13 0 -34 -4 -47 -9 -23 -9 -94 -31 -173 -52 -22 -6 -48
-15 -57 -20 -10 -5 -27 -9 -37 -9 -11 0 -23 -4 -26 -10 -3 -5 -24 -10 -46 -10
-21 0 -39 -4 -39 -10 0 -5 -13 -10 -29 -10 -16 0 -31 -5 -33 -11 -2 -6 -36
-11 -79 -12 l-75 -1 -40 43 c-21 24 -59 71 -83 105 -25 33 -53 70 -64 81 -10
11 -37 45 -60 75 -23 30 -66 79 -95 110 -30 30 -60 67 -68 82 -26 51 -47 288
-25 288 5 0 14 -7 21 -15 7 -8 17 -15 22 -15 5 0 37 -30 71 -67 34 -36 125
-131 202 -211 77 -79 146 -151 154 -159 9 -9 23 -12 40 -8 48 11 1806 466
1824 471 22 7 12 24 -14 24 -10 0 -19 5 -19 10 0 6 -11 10 -24 10 -14 0 -28 5
-31 10 -3 6 -15 10 -25 10 -11 0 -35 9 -55 20 -20 11 -40 20 -45 20 -9 0 -104
41 -142 61 -10 5 -25 9 -33 9 -8 0 -15 5 -15 10 0 6 -9 10 -20 10 -11 0 -20 5
-20 10 0 6 -13 10 -30 10 -16 0 -30 5 -30 10 0 6 -9 10 -19 10 -11 0 -36 9
-58 19 -125 62 -164 71 -210 49z m352 -809 c-71 -39 -157 -86 -190 -104 -470
-256 -772 -418 -780 -418 -11 0 -337 184 -333 189 3 2 113 33 978 279 462 131
433 123 445 124 6 0 -48 -31 -120 -70z m135 -879 c-43 -85 -81 -171 -84 -190
-7 -34 -18 -65 -37 -102 -5 -10 -9 -25 -9 -33 0 -8 -4 -15 -10 -15 -5 0 -10
-9 -10 -20 0 -11 -4 -20 -8 -20 -7 0 -43 -62 -86 -147 -6 -13 -14 -23 -18 -23
-5 0 -8 -6 -8 -12 0 -7 -25 -65 -56 -128 -31 -63 -69 -142 -85 -174 -16 -32
-29 -63 -29 -68 0 -5 -7 -17 -16 -26 -18 -18 -86 -20 -92 -3 -2 6 -12 11 -22
11 -10 0 -22 4 -25 10 -3 5 -22 10 -41 10 -19 0 -34 5 -34 10 0 6 -7 10 -15
10 -8 0 -30 9 -50 20 -20 11 -44 20 -55 20 -10 0 -22 5 -25 10 -3 6 -17 10
-30 10 -13 0 -27 5 -30 10 -3 6 -13 10 -21 10 -8 0 -31 10 -52 23 -20 13 -57
29 -82 37 -25 7 -49 17 -54 22 -6 4 -22 8 -37 8 -15 0 -31 4 -34 10 -3 5 -15
10 -26 10 -10 0 -19 5 -19 10 0 6 -9 10 -19 10 -11 0 -23 5 -26 10 -3 6 -15
10 -26 10 -10 0 -27 4 -37 9 -102 50 -177 81 -197 81 -14 0 -25 5 -25 10 0 6
-9 10 -19 10 -11 0 -23 5 -26 10 -3 6 -17 10 -31 10 -13 0 -24 5 -24 10 0 6
-11 10 -25 10 -14 0 -25 5 -25 10 0 6 -13 10 -30 10 -16 0 -30 5 -30 10 0 6
-13 10 -30 10 -16 0 -30 3 -30 8 0 7 -21 17 -90 42 -47 18 -101 77 -124 136
-26 69 -46 145 -46 175 0 26 0 26 43 15 23 -7 68 -24 100 -39 32 -15 61 -27
66 -27 9 0 94 -33 158 -61 24 -11 47 -19 52 -19 4 0 28 -8 52 -19 24 -10 100
-40 169 -66 202 -76 312 -118 547 -209 122 -47 226 -86 232 -86 6 0 20 -5 31
-10 11 -6 29 -15 40 -20 11 -6 25 -10 32 -10 7 0 148 189 312 420 165 231 301
419 302 417 1 -1 -33 -72 -76 -157z m-1742 -68 c2 -7 -7 -12 -22 -12 -28 0
-55 35 -33 43 14 6 49 -14 55 -31z"/>
</g>
</svg>
